<?xml version="1.0" encoding="UTF-8"?>
<svg version="1.1" xmlns="http://www.w3.org/2000/svg" width="337" height="365">
<path d="M0 0 C111.21 0 222.42 0 337 0 C337 120.45 337 240.9 337 365 C225.79 365 114.58 365 0 365 C0 244.55 0 124.1 0 0 Z " fill="#050506" transform="translate(0,0)"/>
<path d="M0 0 C32.01 0 64.02 0 97 0 C97 0.66 97 1.32 97 2 C95.56267908 2.98097929 94.07007618 3.88084761 92.5625 4.75 C81.00866327 11.90592468 63.22893794 23.54212413 57 36 C56.34 36 55.68 36 55 36 C54.72285156 36.59039062 54.44570313 37.18078125 54.16015625 37.7890625 C53.06719081 39.87195286 51.8963229 41.53796376 50.4375 43.375 C26.84674845 74.4666944 14.31006685 110.58404695 14.5 149.5625 C14.50076538 150.47599213 14.50153076 151.38948425 14.50231934 152.33065796 C14.54776236 167.42119981 15.93529774 181.40486864 20 196 C20.2990625 197.20527344 20.598125 198.41054687 20.90625 199.65234375 C27.88640249 225.27855172 42.00072753 248.6983683 60 268 C61.8428012 270.12548332 63.6723343 272.26110903 65.4921875 274.40625 C67.10873629 276.23369102 67.10873629 276.23369102 70 278 C70 278.66 70 279.32 70 280 C70.84111328 280.37125 70.84111328 280.37125 71.69921875 280.75 C74.39753634 282.215979 76.48382838 283.99684162 78.8125 286 C89.9254381 295.17001383 101.59556526 302.22695414 114.78466797 308.01269531 C116.38644215 308.72655632 117.97810803 309.46324568 119.56298828 310.21386719 C160.13644945 329.30471036 207.20871817 328.09367447 249 314 C250.67147563 313.34548381 252.33960374 312.68213378 254 312 C253.41009277 312.18103271 252.82018555 312.36206543 252.21240234 312.54858398 C245.71684462 314.52210255 239.1905699 316.33727296 232.625 318.0625 C231.67367187 318.31837891 230.72234375 318.57425781 229.7421875 318.83789062 C216.08055596 322.42868432 203.18808524 323.40643582 189.125 323.375 C188.21370331 323.37445618 187.30240662 323.37391235 186.36349487 323.37335205 C172.57629844 323.33548471 159.34711261 322.76523605 146 319 C144.86643066 318.68651611 144.86643066 318.68651611 143.70996094 318.36669922 C126.31970311 313.39539425 108.93353483 306.25000977 94 296 C93.43764648 295.62262695 92.87529297 295.24525391 92.29589844 294.85644531 C83.48749519 288.93079222 75.61926771 282.37738619 68 275 C67.49726562 274.52304687 66.99453125 274.04609375 66.4765625 273.5546875 C51.5620981 259.39730251 39.73828059 242.6348914 31 224 C31 223.34 31 222.68 31 222 C31.99 222 32.98 222 34 222 C34 222.99 34 223.98 34 225 C34.556875 225.226875 35.11375 225.45375 35.6875 225.6875 C40.18136783 228.23807363 43.15413982 232.14071741 46.25 236.1875 C54.15387318 246.51408213 62.96352903 256.2684328 73.6875 263.6875 C74.41445068 264.19297363 75.14140137 264.69844727 75.89038086 265.21923828 C89.5875787 274.61765451 103.13171015 282.9033511 119 288 C120.6875 288.5625 122.375 289.125 124.0625 289.6875 C124.73925781 289.91179687 125.41601562 290.13609375 126.11328125 290.3671875 C131.70482602 292.24261245 135.00853206 293.70230898 138.63671875 298.44140625 C142.24327022 302.56465564 146.72563447 305.12154205 152.1875 305.5625 C153.30898438 305.62824219 153.30898438 305.62824219 154.453125 305.6953125 C158.74126767 306.20831116 162.72872159 307.70778059 166.82421875 309.03515625 C169.48938978 309.84486996 172.00976989 310.42218514 174.75 310.875 C182.41845422 312.25073597 189.71441221 315.31227736 197 318 C197 316.68 197 315.36 197 314 C198.65 314 200.3 314 202 314 C202.2113453 311.6087705 202.2113453 311.6087705 201 309 C194.85332391 305.13968618 187.56743933 303.76776796 180.5625 302.3125 C178.60501618 301.89403855 176.6479605 301.47356768 174.69140625 301.05078125 C173.41052124 300.78261597 173.41052124 300.78261597 172.10375977 300.5090332 C170 300 170 300 168 299 C168.33 297.35 168.66 295.7 169 294 C170.47906892 293.97310784 171.95827483 293.95365379 173.4375 293.9375 C174.26121094 293.92589844 175.08492187 293.91429687 175.93359375 293.90234375 C178 294 178 294 179 295 C192.48899947 298.06533183 207.65298256 300.24600935 221 296 C221 294.68 221 293.36 221 292 C213.52492986 290.16121269 206.08469408 289.20446875 198.4375 288.375 C197.23802734 288.2409375 196.03855469 288.106875 194.80273438 287.96875 C191.86894392 287.64147457 188.93473584 287.31866678 186 287 C187.17798852 283.46603445 187.85348705 283.22865981 190.9375 281.375 C199.00174022 276.166041 205.60371455 270.64544134 209.9453125 261.9921875 C212.46140511 257.23956813 216.5299874 254.61265977 220.875 251.6875 C225.77613754 248.33294364 229.2834031 244.58643873 233 240 C234.20429561 238.64224123 235.41263011 237.28805398 236.625 235.9375 C238.85276224 233.40435911 240.88573893 230.83115961 242.8125 228.0625 C245 225 245 225 247 224 C248.39455494 223.90427223 249.79357114 223.86925902 251.19140625 223.8671875 C252.47289551 223.86356201 252.47289551 223.86356201 253.78027344 223.85986328 C257.58897775 223.88058456 261.39717052 223.909116 265.20556641 223.96289062 C266.9733722 223.98636664 268.7413205 224.00173105 270.50927734 224.00585938 C279.77671643 224.04443352 286.80686089 224.51809262 294 231 C295.010625 231.78375 296.02125 232.5675 297.0625 233.375 C297.701875 233.91125 298.34125 234.4475 299 235 C298.71110084 230.21344195 298.71110084 230.21344195 296.4375 226.1875 C295.963125 225.795625 295.48875 225.40375 295 225 C295 224.34 295 223.68 295 223 C300.13503344 223.64187918 304.9943454 224.68272247 310 226 C304.96072223 219.88606357 301.1105669 215.2976907 293 214 C291.12641049 213.90943982 289.25255547 213.82077431 287.37768555 213.76245117 C271.77858163 213.19631748 271.77858163 213.19631748 267 209 C265.24471662 205.07838586 264.57344558 201.23681635 264 197 C263.72929688 195.69869141 263.72929688 195.69869141 263.453125 194.37109375 C262.45758196 189.16165735 262.15682414 183.62016078 265 179 C268.80302506 175.15978154 273.09477094 171.90929654 277.375 168.625 C288.26757163 160.20885919 297.95866594 150.4675937 306.625 139.78125 C308.59308972 137.47651335 310.21860904 135.87448623 312.6875 134.1875 C315.99643159 131.81329485 318.99804111 129.25294847 322 126.5 C326.14553154 122.70741619 330.42533607 119.25848967 335 116 C336.27234836 119.81704509 336.13451781 123.39468624 336.12025452 127.37113953 C336.12111053 128.23324539 336.12196655 129.09535126 336.12284851 129.98358154 C336.12450863 132.89231407 336.11897206 135.8009895 336.11352539 138.7097168 C336.11321918 140.82267918 336.11335233 142.93564167 336.11389065 145.04860401 C336.11411688 150.71914076 336.10831107 156.38965651 336.10128021 162.06018829 C336.09559527 167.37659269 336.09531764 172.69299192 336.09460449 178.00939941 C336.08935222 193.56876907 336.07539113 209.1281348 336.0625 224.6875 C336.041875 259.440625 336.02125 294.19375 336 330 C224.79 330 113.58 330 -1 330 C-1.020625 279.076875 -1.04125 228.15375 -1.0625 175.6875 C-1.071604 159.62408936 -1.08070801 143.56067871 -1.09008789 127.01049805 C-1.09460449 107.35510254 -1.09460449 107.35510254 -1.09544373 98.14582825 C-1.09637321 91.73082612 -1.10002845 85.31583277 -1.10557556 78.90083313 C-1.11197494 71.48916737 -1.11482804 64.07750999 -1.11344495 56.66584145 C-1.11284673 52.88060533 -1.11374464 49.0953879 -1.11921513 45.31015527 C-1.12506497 41.23729087 -1.12297158 37.16446622 -1.12025452 33.09159851 C-1.12316718 31.93719678 -1.12607985 30.78279505 -1.12908077 29.59341145 C-1.1114697 19.67267875 -0.52383707 9.95290425 0 0 Z " fill="#030304" transform="translate(1,35)"/>
<path d="M0 0 C0.68860007 -0.00085442 1.37720014 -0.00170885 2.08666688 -0.00258917 C4.39905685 -0.00423914 6.71137462 0.00126952 9.02375793 0.00672913 C10.67935179 0.00701113 12.33494577 0.00685301 13.99053955 0.00628662 C18.49022931 0.00599915 22.98989252 0.01188773 27.4895761 0.01886058 C32.19012172 0.02510251 36.89066792 0.02569858 41.59121704 0.02688599 C50.49469719 0.02999682 59.3981651 0.03820688 68.30163985 0.04823548 C78.43694418 0.0594043 88.57224909 0.06490901 98.70755804 0.06993091 C119.55881445 0.08038968 140.41005984 0.09798434 161.26130676 0.12025452 C157.26715117 8.37124155 149.51480449 13.3377959 142.37068176 18.75697327 C135.02635156 23.67527906 135.02635156 23.67527906 131.26130676 31.12025452 C130.77150492 37.73257934 132.10210071 43.60976562 133.60505676 50.04603577 C134.26130676 53.12025452 134.26130676 53.12025452 134.26130676 56.12025452 C140.25725361 58.41197458 145.92642266 59.35892347 152.32380676 59.62025452 C162.72276861 60.11992608 168.52821698 61.63941784 175.82771301 69.28041077 C177.26130676 71.12025452 177.26130676 71.12025452 177.26130676 73.12025452 C175.51100914 72.8094258 173.76107982 72.49652272 172.01130676 72.18275452 C171.03677551 72.00873108 170.06224426 71.83470764 169.05818176 71.65541077 C166.76408882 71.21645723 164.51838705 70.71676859 162.26130676 70.12025452 C162.92130676 70.80087952 163.58130676 71.48150452 164.26130676 72.18275452 C166.70016548 75.76482826 166.59423262 77.87544988 166.26130676 82.12025452 C162.81162007 80.58706043 160.19182345 78.47896307 157.26130676 76.12025452 C153.18662985 73.1713796 149.67277903 72.5906315 144.76130676 72.43275452 C144.03588684 72.40294495 143.31046692 72.37313538 142.56306458 72.34242249 C140.98293989 72.2841583 139.40248491 72.23438157 137.82185364 72.19203186 C136.04672262 72.14227132 134.27193455 72.07917634 132.49763489 72.00550842 C129.6689669 71.89047851 126.84146416 71.81314472 124.01130676 71.74525452 C122.67229309 71.68785095 122.67229309 71.68785095 121.30622864 71.62928772 C116.91930612 71.57365646 114.93788701 71.59585898 111.37849426 74.35462952 C110.33048645 75.72361389 110.33048645 75.72361389 109.26130676 77.12025452 C108.62966614 77.89627014 107.99802551 78.67228577 107.34724426 79.47181702 C106.78263489 80.22205139 106.21802551 80.97228577 105.63630676 81.74525452 C104.52719417 83.21570696 103.40329193 84.67518324 102.26130676 86.12025452 C101.85328418 86.65083623 101.44526159 87.18141794 101.02487469 87.72807789 C98.48106636 89.73618342 96.61143056 89.48935596 93.39578247 89.48101807 C92.17160614 89.48514206 90.94742981 89.48926605 89.68615723 89.49351501 C88.32749719 89.48289762 86.96883938 89.47199319 85.61018372 89.46083069 C84.18118813 89.45998458 82.75219124 89.46045924 81.32319641 89.4621582 C77.44115258 89.46302022 73.55938588 89.44536127 69.67740655 89.42443633 C65.62149978 89.40570382 61.56558691 89.4039218 57.50964355 89.40036011 C49.82795877 89.39102955 42.14640181 89.36640214 34.46477336 89.33631164 C25.72002726 89.30279904 16.9752751 89.28628953 8.23048079 89.27122533 C-9.7593164 89.23985343 -27.74899455 89.18707333 -45.73869324 89.12025452 C-45.07869324 88.13025452 -44.41869324 87.14025452 -43.73869324 86.12025452 C-43.45242633 83.83404132 -43.45242633 83.83404132 -43.50041199 81.28041077 C-43.48808533 80.30982727 -43.47575867 79.33924377 -43.46305847 78.33924866 C-43.45089294 77.29760559 -43.43872742 76.25596252 -43.42619324 75.18275452 C-42.61302067 46.86608983 -31.83908235 22.51291589 -11.61369324 2.65931702 C-7.98789993 -0.31685499 -4.5079499 -0.00336163 0 0 Z " fill="#F9FAFB" transform="translate(133.7386932373047,187.87974548339844)"/>
<path d="M0 0 C0.898396 0.00741211 1.79679199 0.01482422 2.72241211 0.02246094 C7.74292282 0.21539849 11.32591567 0.57749036 15.25 4 C16.84765625 5.828125 16.84765625 5.828125 18.1875 7.75 C18.72246094 8.38421875 19.25742188 9.0184375 19.80859375 9.671875 C24.10693879 16.1498341 22.96474229 27.29636144 22.1875 34.75 C21.03127671 39.08703673 19.3307229 42.81878452 17.1875 46.75 C16.80335938 47.5234375 16.41921875 48.296875 16.0234375 49.09375 C11.73346625 57.38185773 6.12773414 65.48686187 -0.8125 71.75 C-1.45703125 72.35199219 -2.1015625 72.95398438 -2.765625 73.57421875 C-18.7604531 88.2547865 -37.39068131 96.84692574 -58.5 101.5 C-70.06230367 104.05287588 -81.24732261 107.90721861 -92.47021484 111.64355469 C-95.44921921 112.62973787 -98.43520671 113.58872557 -101.42578125 114.5390625 C-122.99844757 121.5358254 -145.80977543 133.2672897 -156.62890625 154.27734375 C-158.19914418 157.70490167 -159.53482049 161.2028152 -160.8125 164.75 C-161.07933594 165.44480469 -161.34617187 166.13960937 -161.62109375 166.85546875 C-166.29099167 181.44487396 -161.73036883 197.45026633 -155.0625 210.5625 C-148.62963826 221.54784851 -138.74546551 234.40812358 -126.8125 239.75 C-118.05713762 241.94560981 -109.20569453 242.05397378 -100.23144531 242.06884766 C-98.81096847 242.07817003 -97.39049699 242.08834203 -95.97003174 242.09928894 C-92.15269355 242.12634318 -88.33539172 242.14166445 -84.51798344 242.15471697 C-80.51412395 242.17045637 -76.51033759 242.19721149 -72.50653076 242.2227478 C-64.94210754 242.26934574 -57.37767026 242.30618109 -49.81317782 242.33942068 C-41.19391287 242.37777706 -32.57472172 242.42715134 -23.9555192 242.47740483 C-6.24123364 242.58044196 11.47309709 242.66979319 29.1875 242.75 C28.41144194 243.87653893 27.62984156 244.99926106 26.84594727 246.12036133 C26.41129654 246.74598465 25.97664581 247.37160797 25.52882385 248.01618958 C23.7051184 250.37353193 21.62656821 251.84067207 19.125 253.4375 C14.14336485 256.65368664 10.53987955 259.60103346 7.9375 265 C3.57959436 273.08000742 -3.05881502 278.21420506 -10.61328125 283.20703125 C-12.59059749 284.59431351 -14.13818223 286.0252817 -15.8125 287.75 C-14.58273438 287.72164063 -13.35296875 287.69328125 -12.0859375 287.6640625 C-6.14269521 287.66639044 -0.32631315 288.3772142 5.5625 289.125 C6.64144531 289.25132812 7.72039062 289.37765625 8.83203125 289.5078125 C9.86457031 289.63671875 10.89710938 289.765625 11.9609375 289.8984375 C12.89341309 290.01364746 13.82588867 290.12885742 14.78662109 290.24755859 C17.1875 290.75 17.1875 290.75 20.1875 292.75 C19.8575 294.4 19.5275 296.05 19.1875 297.75 C5.84048256 301.99600935 -9.32350053 299.81533183 -22.8125 296.75 C-23.1425 296.42 -23.4725 296.09 -23.8125 295.75 C-25.33178038 295.67820036 -26.85417482 295.66607993 -28.375 295.6875 C-29.61443359 295.70103516 -29.61443359 295.70103516 -30.87890625 295.71484375 C-31.51699219 295.72644531 -32.15507812 295.73804688 -32.8125 295.75 C-33.1425 297.07 -33.4725 298.39 -33.8125 299.75 C-32.82636719 299.87955078 -32.82636719 299.87955078 -31.8203125 300.01171875 C-25.22466448 300.98587273 -18.80999019 302.40529306 -12.375 304.125 C-11.60623535 304.32182373 -10.8374707 304.51864746 -10.04541016 304.72143555 C-5.47738754 305.98076884 -2.35209803 307.44262211 1.1875 310.75 C0.8575 312.4 0.5275 314.05 0.1875 315.75 C-1.4625 315.42 -3.1125 315.09 -4.8125 314.75 C-4.8125 316.07 -4.8125 317.39 -4.8125 318.75 C-9.12929828 318.17357293 -12.69276518 317.08702921 -16.6875 315.375 C-22.52713034 313.04586008 -28.16731586 311.72329757 -34.34326172 310.73876953 C-38.09578996 310.13273007 -41.30340151 309.17276907 -44.8125 307.75 C-46.20530671 307.63888555 -47.60282959 307.57560666 -49 307.5625 C-55.02724406 307.00815481 -59.36009681 303.65642629 -63.8125 299.75 C-64.74255859 298.46029297 -64.74255859 298.46029297 -65.69140625 297.14453125 C-68.41049186 294.07491895 -70.48033889 293.63072576 -74.4375 292.6875 C-90.34816759 288.54614311 -105.27199487 281.04362377 -118.8125 271.75 C-119.36147949 271.37617188 -119.91045898 271.00234375 -120.47607422 270.6171875 C-128.43586856 265.17159027 -135.83349437 259.43515276 -142.8125 252.75 C-143.48539063 252.12867188 -144.15828125 251.50734375 -144.8515625 250.8671875 C-161.28423145 235.22014415 -177.59432525 211.12097555 -179.05078125 187.9609375 C-179.17672417 181.23956296 -178.98444666 175.11690651 -176.8125 168.75 C-176.55597656 167.85152344 -176.29945313 166.95304688 -176.03515625 166.02734375 C-168.92335097 142.37219743 -150.51875975 126.94221228 -129.4375 115.5625 C-110.94442935 105.87677786 -90.7532293 100.35928943 -70.72076416 94.8291626 C-48.54221361 88.7001395 -29.09425538 82.15539464 -10.8125 67.75 C-9.91273438 67.06164062 -9.01296875 66.37328125 -8.0859375 65.6640625 C-5.6275563 63.77509877 -5.6275563 63.77509877 -3.8125 60.75 C-3.1525 60.75 -2.4925 60.75 -1.8125 60.75 C-1.55210937 60.18925781 -1.29171875 59.62851563 -1.0234375 59.05078125 C0.3162512 56.50537271 1.88010566 54.27007731 3.5625 51.9375 C9.73497505 43.18567466 13.54156384 35.68945084 13.5625 24.6875 C13.58699219 24.00623047 13.61148438 23.32496094 13.63671875 22.62304688 C13.66618682 17.51033657 12.36468049 14.69064345 9.1875 10.75 C5.48373102 7.57534087 2.06494508 7.22547206 -2.66015625 7.3984375 C-5.97641744 7.94011356 -7.60466435 9.2745479 -9.8125 11.75 C-11.14548974 14.36818456 -11.14548974 14.36818456 -11.8125 16.75 C-12.8025 16.42 -13.7925 16.09 -14.8125 15.75 C-14.9488128 14.18997572 -15.04509126 12.62642824 -15.125 11.0625 C-15.21201172 9.75732422 -15.21201172 9.75732422 -15.30078125 8.42578125 C-13.79155158 0.15520264 -6.9581338 -0.11980302 0 0 Z " fill="#0456CF" transform="translate(202.8125,34.25)"/>
<path d="M0 0 C5.36293567 1.56747568 9.08247472 6.08988474 12.125 10.55859375 C12.62 11.57953125 12.62 11.57953125 13.125 12.62109375 C16.48672654 12.18627888 19.75668955 11.71483486 23.04394531 10.87817383 C36.10520963 7.57046416 49.48382085 8.20720159 62.86669922 8.29852295 C65.56751677 8.31206644 68.26816961 8.3067591 70.96900558 8.30139446 C74.20332921 8.2972599 77.43757309 8.30920322 80.671875 8.3203125 C81.87801453 8.31940109 83.08415405 8.31848969 84.32684326 8.31755066 C85.99568573 8.33184868 85.99568573 8.33184868 87.69824219 8.34643555 C88.67670105 8.35104294 89.65515991 8.35565033 90.66326904 8.36039734 C93.125 8.62109375 93.125 8.62109375 96.125 10.62109375 C96.67459208 14.2334126 96.53140318 16.00363578 94.5078125 19.078125 C79.50427436 34.7306051 79.50427436 34.7306051 74.453125 36.62109375 C71.53871941 37.87291897 71.40753936 38.79950715 70.125 41.62109375 C68.52808858 43.35496155 66.87646858 45.03926752 65.1875 46.68359375 C64.31222656 47.54082031 63.43695313 48.39804688 62.53515625 49.28125 C61.34212891 50.43947266 61.34212891 50.43947266 60.125 51.62109375 C59.72084208 52.15691228 59.31668417 52.69273081 58.90027905 53.24478626 C56.14760603 55.37883077 53.74969478 54.9894608 50.31037903 54.9818573 C49.61361185 54.98442057 48.91684468 54.98698385 48.19896334 54.9896248 C45.85872692 54.99457551 43.5191323 54.97804923 41.17895508 54.96166992 C39.50365718 54.96082392 37.82835816 54.96129826 36.15306091 54.96299744 C31.59956778 54.96385989 27.04631065 54.94619381 22.49287248 54.92527556 C17.73628316 54.9065503 12.97968872 54.9047616 8.22306824 54.90119934 C-0.78670624 54.89186665 -9.79637181 54.86723634 -18.80609828 54.83715087 C-29.06230562 54.80364491 -39.31851809 54.78713043 -49.57476652 54.77206457 C-70.67490519 54.74068784 -91.77494574 54.68790358 -112.875 54.62109375 C-111.91707216 53.49214052 -110.95753448 52.36455311 -109.99731445 51.23754883 C-109.46314407 50.6094783 -108.92897369 49.98140778 -108.37861633 49.33430481 C-90.04760856 28.44806903 -58.48781671 21.19088939 -32.17529297 19.36425781 C-24.7453736 18.95897185 -17.31494831 18.72782563 -9.875 18.62109375 C-10.00519531 17.74066406 -10.13539063 16.86023438 -10.26953125 15.953125 C-11.39163591 6.50437451 -11.39163591 6.50437451 -8.9375 2.30859375 C-5.86917107 0.61788189 -3.53702704 -0.22106419 0 0 Z " fill="#0455CF" transform="translate(237.875,134.37890625)"/>
<path d="M0 0 C0.66 0 1.32 0 2 0 C2.79589844 1.54467773 2.79589844 1.54467773 3.609375 3.68359375 C6.79995258 11.02695223 6.79995258 11.02695223 12 17 C18.99139061 19.40678687 26.74071903 18.69430803 34 18 C32.39375029 23.55256879 29.72975129 27.48629432 26.36328125 32.12109375 C24.54767696 35.9551922 24.89726375 37.93422042 26 42 C27.79896814 45.24843307 27.79896814 45.24843307 30.0625 48.25 C34 53.7029877 34 53.7029877 34 57 C33.35973877 56.98839844 32.71947754 56.97679687 32.05981445 56.96484375 C29.14277652 56.93526401 26.22947412 56.96703984 23.3125 57 C22.30509766 56.98066406 21.29769531 56.96132812 20.25976562 56.94140625 C14.77785907 56.92618133 14.77785907 56.92618133 10.28930664 59.65429688 C8.99290289 61.71761141 7.97614925 63.76939623 7 66 C6.42894531 66.9796875 5.85789063 67.959375 5.26953125 68.96875 C4.28722357 70.67527916 3.30812299 72.38365788 2.33203125 74.09375 C1.89246094 74.7228125 1.45289063 75.351875 1 76 C0.34 76 -0.32 76 -1 76 C-1.55429688 74.95199219 -2.10859375 73.90398437 -2.6796875 72.82421875 C-3.41137539 71.44526849 -4.1431508 70.06636466 -4.875 68.6875 C-5.23980469 67.99720703 -5.60460937 67.30691406 -5.98046875 66.59570312 C-6.33496094 65.92861328 -6.68945312 65.26152344 -7.0546875 64.57421875 C-7.54171143 63.65515747 -7.54171143 63.65515747 -8.03857422 62.7175293 C-8.94547058 61.09741352 -9.9701029 59.54484566 -11 58 C-13.31753588 57.49156938 -13.31753588 57.49156938 -16.0078125 57.48828125 C-17.48701172 57.43510742 -17.48701172 57.43510742 -18.99609375 57.38085938 C-20.54490234 57.34702148 -20.54490234 57.34702148 -22.125 57.3125 C-23.16527344 57.27833984 -24.20554688 57.24417969 -25.27734375 57.20898438 C-27.85145507 57.12632942 -30.42521829 57.05723845 -33 57 C-31.97033057 51.99212431 -28.95362482 48.24578174 -26.0625 44.1328125 C-23.65734105 40.86205337 -23.65734105 40.86205337 -23.25610352 37.00219727 C-24.74168291 33.00376058 -27.46095498 29.5572225 -29.84960938 26.04492188 C-33 21.30669392 -33 21.30669392 -33 18 C-25.41 18 -17.82 18 -10 18 C-9.34 16.35 -8.68 14.7 -8 13 C-6.84517496 10.89837845 -5.6558932 8.81541812 -4.4375 6.75 C-3.81746094 5.69296875 -3.19742188 4.6359375 -2.55859375 3.546875 C-1 1 -1 1 0 0 Z " fill="#1059C8" transform="translate(187,195)"/>
<path d="M0 0 C0.898396 0.00741211 1.79679199 0.01482422 2.72241211 0.02246094 C7.74292282 0.21539849 11.32591567 0.57749036 15.25 4 C16.84765625 5.828125 16.84765625 5.828125 18.1875 7.75 C18.72246094 8.38421875 19.25742188 9.0184375 19.80859375 9.671875 C24.10693879 16.1498341 22.96474229 27.29636144 22.1875 34.75 C21.03127671 39.08703673 19.3307229 42.81878452 17.1875 46.75 C16.80335938 47.5234375 16.41921875 48.296875 16.0234375 49.09375 C11.73346625 57.38185773 6.12773414 65.48686187 -0.8125 71.75 C-1.45703125 72.35199219 -2.1015625 72.95398438 -2.765625 73.57421875 C-18.7604531 88.2547865 -37.39068131 96.84692574 -58.5 101.5 C-70.06230367 104.05287588 -81.24732261 107.90721861 -92.47021484 111.64355469 C-95.44921921 112.62973787 -98.43520671 113.58872557 -101.42578125 114.5390625 C-123.11083986 121.57227811 -140.96369724 132.3548731 -154.8125 150.75 C-157.21995113 148.61004344 -157.76958042 148.09335664 -158.1875 144.75 C-157.8125 141.75 -157.8125 141.75 -156.3125 139.875 C-155.8175 139.50375 -155.3225 139.1325 -154.8125 138.75 C-158.6359006 140.02446687 -158.86225237 141.31756418 -160.8125 144.75 C-162.8125 147.5625 -162.8125 147.5625 -164.8125 149.75 C-165.8025 149.75 -166.7925 149.75 -167.8125 149.75 C-161.76708008 132.34651841 -139.39948198 120.36872617 -123.68896484 112.64355469 C-106.84977257 104.6248917 -88.6385258 99.77550813 -70.72076416 94.8291626 C-48.54221361 88.7001395 -29.09425538 82.15539464 -10.8125 67.75 C-9.91273438 67.06164062 -9.01296875 66.37328125 -8.0859375 65.6640625 C-5.6275563 63.77509877 -5.6275563 63.77509877 -3.8125 60.75 C-3.1525 60.75 -2.4925 60.75 -1.8125 60.75 C-1.55210937 60.18925781 -1.29171875 59.62851563 -1.0234375 59.05078125 C0.3162512 56.50537271 1.88010566 54.27007731 3.5625 51.9375 C9.73497505 43.18567466 13.54156384 35.68945084 13.5625 24.6875 C13.58699219 24.00623047 13.61148438 23.32496094 13.63671875 22.62304688 C13.66618682 17.51033657 12.36468049 14.69064345 9.1875 10.75 C5.48373102 7.57534087 2.06494508 7.22547206 -2.66015625 7.3984375 C-5.97641744 7.94011356 -7.60466435 9.2745479 -9.8125 11.75 C-11.14548974 14.36818456 -11.14548974 14.36818456 -11.8125 16.75 C-12.8025 16.42 -13.7925 16.09 -14.8125 15.75 C-14.9488128 14.18997572 -15.04509126 12.62642824 -15.125 11.0625 C-15.21201172 9.75732422 -15.21201172 9.75732422 -15.30078125 8.42578125 C-13.79155158 0.15520264 -6.9581338 -0.11980302 0 0 Z " fill="#0B53C4" transform="translate(202.8125,34.25)"/>
<path d="M0 0 C0.99 0.495 0.99 0.495 2 1 C1.56244385 1.40202637 1.1248877 1.80405273 0.67407227 2.21826172 C-34.22896208 34.37363966 -58.81789637 75.4222169 -61 124 C-62.14030666 154.07718973 -57.62641414 183.90587003 -44 211 C-43.6788623 211.64646484 -43.35772461 212.29292969 -43.02685547 212.95898438 C-38.9577135 221.07738976 -34.48691789 228.74270357 -29 236 C-28.44699219 236.74507812 -27.89398438 237.49015625 -27.32421875 238.2578125 C-6.82237479 265.3108204 19.17523067 285.11388475 51 297 C51.73395996 297.28069336 52.46791992 297.56138672 53.22412109 297.85058594 C58.41790134 299.81342566 63.65312471 301.50476364 69 303 C69.74830078 303.21172852 70.49660156 303.42345703 71.26757812 303.64160156 C102.57555187 311.99127673 139.49768499 308.99498409 169.61303711 297.79248047 C174.71351103 295.90450368 174.71351103 295.90450368 178 297 C138.7739865 315.51161568 91.80948742 314.00027794 51.44287109 300.27001953 C37.23160384 295.02771261 23.08557063 288.20293823 11 279 C10.45424316 278.58975586 9.90848633 278.17951172 9.34619141 277.75683594 C5.52733924 274.88397676 1.75131831 271.96077204 -2 269 C-2.95003906 268.28328125 -3.90007812 267.5665625 -4.87890625 266.828125 C-5.92884766 265.92320312 -5.92884766 265.92320312 -7 265 C-7 264.34 -7 263.68 -7 263 C-7.53496094 262.79761719 -8.06992188 262.59523438 -8.62109375 262.38671875 C-12.00216749 260.41581369 -14.44257522 257.67077621 -17.0625 254.8125 C-17.63395752 254.19028564 -18.20541504 253.56807129 -18.79418945 252.92700195 C-37.09173583 232.65532007 -51.40174367 207.59211066 -58 181 C-58.21140625 180.24090332 -58.4228125 179.48180664 -58.640625 178.69970703 C-65.93854117 152.01670105 -66.49159737 119.69191646 -59 93 C-58.64337975 91.56310673 -58.28920998 90.12560304 -57.9375 88.6875 C-52.41298925 67.18882589 -41.46316674 46.54463202 -28 29 C-27.41863281 28.19175781 -26.83726563 27.38351563 -26.23828125 26.55078125 C-25.70589844 25.81214844 -25.17351563 25.07351562 -24.625 24.3125 C-24.16351563 23.66925781 -23.70203125 23.02601562 -23.2265625 22.36328125 C-22.82179687 21.91339844 -22.41703125 21.46351562 -22 21 C-21.34 21 -20.68 21 -20 21 C-19.72905518 20.40380859 -19.45811035 19.80761719 -19.17895508 19.19335938 C-18.01600593 17.02977786 -16.87114511 15.62648939 -15.13671875 13.90625 C-14.30043945 13.07287109 -14.30043945 13.07287109 -13.44726562 12.22265625 C-12.86654297 11.65417969 -12.28582031 11.08570313 -11.6875 10.5 C-11.11837891 9.93152344 -10.54925781 9.36304688 -9.96289062 8.77734375 C-6.7879178 5.63517776 -3.55335385 2.72001571 0 0 Z " fill="#171717" transform="translate(78,50)"/>
<path d="M0 0 C2.26171875 0.1640625 2.26171875 0.1640625 5 1 C7.01953125 3.3984375 7.01953125 3.3984375 8.8125 6.375 C9.41707031 7.35210937 10.02164063 8.32921875 10.64453125 9.3359375 C12 12 12 12 12 15 C11.35973877 14.98839844 10.71947754 14.97679687 10.05981445 14.96484375 C7.14277652 14.93526401 4.22947412 14.96703984 1.3125 15 C0.30509766 14.98066406 -0.70230469 14.96132812 -1.74023438 14.94140625 C-7.22214093 14.92618133 -7.22214093 14.92618133 -11.71069336 17.65429688 C-13.00709711 19.71761141 -14.02385075 21.76939623 -15 24 C-15.57105469 24.9796875 -16.14210937 25.959375 -16.73046875 26.96875 C-17.71277643 28.67527916 -18.69187701 30.38365788 -19.66796875 32.09375 C-20.10753906 32.7228125 -20.54710937 33.351875 -21 34 C-21.66 34 -22.32 34 -23 34 C-23.55429688 32.95199219 -24.10859375 31.90398437 -24.6796875 30.82421875 C-25.41137539 29.44526849 -26.1431508 28.06636466 -26.875 26.6875 C-27.23980469 25.99720703 -27.60460937 25.30691406 -27.98046875 24.59570312 C-28.33496094 23.92861328 -28.68945312 23.26152344 -29.0546875 22.57421875 C-29.54171143 21.65515747 -29.54171143 21.65515747 -30.03857422 20.7175293 C-30.94547058 19.09741352 -31.9701029 17.54484566 -33 16 C-35.31753588 15.49156938 -35.31753588 15.49156938 -38.0078125 15.48828125 C-38.99394531 15.45283203 -39.98007813 15.41738281 -40.99609375 15.38085938 C-42.54490234 15.34702148 -42.54490234 15.34702148 -44.125 15.3125 C-45.16527344 15.27833984 -46.20554688 15.24417969 -47.27734375 15.20898438 C-49.85145507 15.12632942 -52.42521829 15.05723845 -55 15 C-54.67 13.68 -54.34 12.36 -54 11 C-52.68 10.67 -51.36 10.34 -50 10 C-50 9.01 -50 8.02 -50 7 C-49.34 7 -48.68 7 -48 7 C-47.67 5.35 -47.34 3.7 -47 2 C-46.01 2 -45.02 2 -44 2 C-44.33 4.64 -44.66 7.28 -45 10 C-43.60427948 10.02736707 -42.20839779 10.04655989 -40.8125 10.0625 C-39.64654297 10.07990234 -39.64654297 10.07990234 -38.45703125 10.09765625 C-36.01894093 10.07517652 -36.01894093 10.07517652 -33.76953125 9.49609375 C-29.79820587 8.78472799 -25.89921268 8.9354059 -21.875 9 C-20.26829715 9.02554377 -18.66151437 9.04656453 -17.0546875 9.0625 C-15.99483643 9.07990234 -15.99483643 9.07990234 -14.91357422 9.09765625 C-12.7765951 9.07412344 -12.7765951 9.07412344 -10 8 C-8.79117904 5.99983534 -8.79117904 5.99983534 -8 4 C-7 5 -7 5 -6.9375 7.5625 C-6.958125 8.366875 -6.97875 9.17125 -7 10 C-4.03 10 -1.06 10 2 10 C1.34 8.68 0.68 7.36 0 6 C-0.125 2.75 -0.125 2.75 0 0 Z " fill="#135BCA" transform="translate(209,237)"/>
<path d="M0 0 C3.56981811 0.34876102 5.68759259 1.0184657 8.47412109 3.29101562 C11.35836545 7.28689583 13.53991501 11.22486184 13.91162109 16.20117188 C12.59496495 21.10479311 10.61189995 24.71003921 6.91162109 28.20117188 C1.55118972 30.2974686 -4.72794753 30.2974686 -10.08837891 28.20117188 C-13.78865777 24.71003921 -15.77172277 21.10479311 -17.08837891 16.20117188 C-16.86572266 13.63867188 -16.86572266 13.63867188 -16.08837891 11.20117188 C-15.80865234 10.31816406 -15.52892578 9.43515625 -15.24072266 8.52539062 C-11.88202229 1.23560687 -7.6746869 -0.17422672 0 0 Z " fill="#F5F8FA" transform="translate(189.08837890625,217.798828125)"/>
<path d="M0 0 C0.38969971 0.4844458 0.77939941 0.9688916 1.1809082 1.46801758 C3.56608279 3.47673728 5.01399593 3.42236982 8.10546875 3.51171875 C9.57983398 3.56489258 9.57983398 3.56489258 11.08398438 3.61914062 C12.62022461 3.65297852 12.62022461 3.65297852 14.1875 3.6875 C15.74114258 3.73874023 15.74114258 3.73874023 17.32617188 3.79101562 C19.8840066 3.87352642 22.44149723 3.94266572 25 4 C23.71735606 8.41151778 22.01601923 11.69333899 19.375 15.4375 C16.36924679 19.99280301 15.16148256 22.60953071 16 28 C15.01 28 14.02 28 13 28 C13.66 31.3 14.32 34.6 15 38 C12.03 38 9.06 38 6 38 C5.67 36.35 5.34 34.7 5 33 C3.68 34.32 2.36 35.64 1 37 C1 32.9223189 2.86051826 30.73219072 5.00390625 27.3515625 C6.25145291 24.40637391 5.97574678 23.01017882 5 20 C3.69418644 17.9819245 2.36363208 15.97946592 1 14 C1 13.34 1 12.68 1 12 C2.98 12.495 2.98 12.495 5 13 C5 12.01 5 11.02 5 10 C6.98 9.34 8.96 8.68 11 8 C11 7.67 11 7.34 11 7 C7.7 6.67 4.4 6.34 1 6 C0.67 4.02 0.34 2.04 0 0 Z " fill="#2C65BF" transform="translate(196,209)"/>
<path d="M0 0 C3.3 0 6.6 0 10 0 C10.33 1.98 10.66 3.96 11 6 C12.32 5.67 13.64 5.34 15 5 C13.94124926 8.40312738 12.99097846 11.01353231 11 14 C11.37239666 17.29063234 12.90494608 19.80101925 14.5625 22.625 C17 26.78186969 17 26.78186969 17 29 C22.61 29 28.22 29 34 29 C34 29.33 34 29.66 34 30 C33.41508789 29.99476318 32.83017578 29.98952637 32.22753906 29.98413086 C29.56837037 29.96329842 26.90921889 29.95031993 24.25 29.9375 C23.32960937 29.92912109 22.40921875 29.92074219 21.4609375 29.91210938 C20.57148438 29.90888672 19.68203125 29.90566406 18.765625 29.90234375 C17.54020996 29.89448853 17.54020996 29.89448853 16.29003906 29.88647461 C14.0561018 29.99721883 12.15390558 30.42944416 10 31 C7.29234605 30.84682979 4.68741267 30.4031119 2 30 C2.33 27.36 2.66 24.72 3 22 C2.01 22 1.02 22 0 22 C-0.33 23.65 -0.66 25.3 -1 27 C-1.66 27 -2.32 27 -3 27 C-3 27.99 -3 28.98 -3 30 C-3.99 30.33 -4.98 30.66 -6 31 C-4.36096823 26.46667799 -1.99332501 23.03313474 0.85546875 19.18359375 C2.17714123 17.12610833 2.17714123 17.12610833 1.8671875 15.08203125 C0.7328329 12.35855827 -0.62191912 9.82465519 -2.0625 7.25 C-2.61035156 6.26515625 -3.15820312 5.2803125 -3.72265625 4.265625 C-4.14417969 3.51796875 -4.56570312 2.7703125 -5 2 C-4.34 2 -3.68 2 -3 2 C-3 2.66 -3 3.32 -3 4 C-2.01 4 -1.02 4 0 4 C0 2.68 0 1.36 0 0 Z " fill="#175ECB" transform="translate(162,217)"/>
<path d="M0 0 C0.99 0 1.98 0 3 0 C3 1.32 3 2.64 3 4 C3.65742188 4.08636719 4.31484375 4.17273438 4.9921875 4.26171875 C11.58783552 5.23587273 18.00250981 6.65529306 24.4375 8.375 C25.20626465 8.57182373 25.9750293 8.76864746 26.76708984 8.97143555 C31.33511246 10.23076884 34.46040197 11.69262211 38 15 C37.505 17.475 37.505 17.475 37 20 C35.35 19.67 33.7 19.34 32 19 C32 20.32 32 21.64 32 23 C26.74272175 22.33654156 22.07140932 20.74419696 17.125 18.9375 C16.34125 18.65583984 15.5575 18.37417969 14.75 18.08398438 C12.83169424 17.39386218 10.91561481 16.69755684 9 16 C9 15.34 9 14.68 9 14 C7.68 13.67 6.36 13.34 5 13 C5.33 11.68 5.66 10.36 6 9 C6.99 9 7.98 9 9 9 C8.67 8.34 8.34 7.68 8 7 C5.6859378 6.26924352 3.35171131 5.59861742 1 5 C0.67 3.35 0.34 1.7 0 0 Z " fill="#0556D1" transform="translate(166,330)"/>
<path d="M0 0 C0.33 0.66 0.66 1.32 1 2 C2.84464844 1.95746094 2.84464844 1.95746094 4.7265625 1.9140625 C10.66980479 1.91639044 16.48618685 2.6272142 22.375 3.375 C23.45394531 3.50132812 24.53289062 3.62765625 25.64453125 3.7578125 C26.67707031 3.88671875 27.70960938 4.015625 28.7734375 4.1484375 C29.70591309 4.26364746 30.63838867 4.37885742 31.59912109 4.49755859 C34 5 34 5 37 7 C36.67 8.65 36.34 10.3 36 12 C24.82832834 15.60468791 13.35450909 14.36816577 2 12 C2 11.67 2 11.34 2 11 C4.31 11 6.62 11 9 11 C8.67 10.01 8.34 9.02 8 8 C8 6.33333333 8 4.66666667 8 3 C5.36 3 2.72 3 0 3 C0 2.01 0 1.02 0 0 Z " fill="#0B51BD" transform="translate(186,320)"/>
<path d="M0 0 C0 0.99 0 1.98 0 3 C1.98 3 3.96 3 6 3 C3.3368765 5.6631235 0.32200628 6.34226277 -3.1875 7.4375 C-8.26744108 9.03982968 -13.10156934 10.88738074 -18 13 C-20.56558225 13.95120203 -23.15305133 14.82618737 -25.75 15.6875 C-26.40871094 15.91244141 -27.06742188 16.13738281 -27.74609375 16.36914062 C-30.62546247 17.32990362 -32.94272372 18 -36 18 C-36 17.34 -36 16.68 -36 16 C-33.03 15.01 -30.06 14.02 -27 13 C-28.32 12.67 -29.64 12.34 -31 12 C-31 11.34 -31 10.68 -31 10 C-24.08414207 4.5027796 -16.74498767 2.52300067 -8 3 C-8 2.34 -8 1.68 -8 1 C-2.25 0 -2.25 0 0 0 Z " fill="#0A54C6" transform="translate(134,131)"/>
<path d="M0 0 C0.8353125 0.30744141 0.8353125 0.30744141 1.6875 0.62109375 C2.450625 0.89050781 3.21375 1.15992188 4 1.4375 C5.11375 1.83775391 5.11375 1.83775391 6.25 2.24609375 C14.37646519 4.47394571 22.76870299 4.16881624 31.12695312 4.20532227 C32.54683711 4.2149158 33.96671833 4.22492671 35.38659668 4.23532104 C39.2206936 4.2622165 43.05480263 4.28330861 46.88894081 4.30332303 C50.90348103 4.32527801 54.91798456 4.35261991 58.93249512 4.37937927 C66.52539195 4.42917812 74.11830929 4.47416415 81.71124601 4.51740164 C90.35941697 4.56688388 99.0075511 4.62176106 107.65568638 4.67708123 C125.43709001 4.7907045 143.21852845 4.89758589 161 5 C160.22451179 6.12423266 159.44368073 7.24478099 158.66064453 8.36376953 C158.22640167 8.98816925 157.79215881 9.61256897 157.34475708 10.25588989 C155.49762612 12.65156404 153.38565789 14.20890593 150.875 15.875 C150.02679688 16.44992187 149.17859375 17.02484375 148.3046875 17.6171875 C146 19 146 19 143 20 C143.33 19.01 143.66 18.02 144 17 C144.99 17 145.98 17 147 17 C147.33 16.01 147.66 15.02 148 14 C148.99 14 149.98 14 151 14 C150.67 12.68 150.34 11.36 150 10 C151.65 10 153.3 10 155 10 C155 9.01 155 8.02 155 7 C154.24701032 6.99576806 153.49402063 6.99153612 152.71821308 6.98717594 C134.39870706 6.883884 116.07923986 6.77524839 97.75980091 6.66066074 C88.90067162 6.60537605 80.0415383 6.55190187 71.18237305 6.50268555 C63.4609863 6.45978546 55.73962864 6.4134928 48.01828688 6.36312145 C43.92968428 6.33656743 39.84108726 6.31171558 35.75245094 6.29092598 C31.90378265 6.27130296 28.05516946 6.2471424 24.2065506 6.21950912 C22.79444825 6.21016865 21.38233384 6.20248266 19.97021294 6.19658089 C18.04077117 6.18826859 16.11136097 6.1734035 14.18196106 6.15821838 C13.10254148 6.15176583 12.02312189 6.14531328 10.91099262 6.1386652 C4.02194119 5.81050508 4.02194119 5.81050508 1.1875 3.5625 C0 2 0 2 0 0 Z " fill="#275DB7" transform="translate(71,272)"/>
<path d="M0 0 C0.99 0 1.98 0 3 0 C2.67 2.64 2.34 5.28 2 8 C6.84451871 8.09499056 11.2415589 7.97967905 16 7 C16.99 7.33 17.98 7.66 19 8 C21.39254576 8.22560676 23.78928123 8.40848595 26.1875 8.5625 C28.09595703 8.68818359 28.09595703 8.68818359 30.04296875 8.81640625 C31.50669922 8.90728516 31.50669922 8.90728516 33 9 C32.25 13.75 32.25 13.75 30 16 C30 15.01 30 14.02 30 13 C27.36 13 24.72 13 22 13 C22.33 15.64 22.66 18.28 23 21 C22.67 20.01 22.34 19.02 22 18 C21.01 18.33 20.02 18.66 19 19 C18.67 17.68 18.34 16.36 18 15 C17.34 15 16.68 15 16 15 C15.67 14.34 15.34 13.68 15 13 C8.4 12.67 1.8 12.34 -5 12 C-5 10.68 -5 9.36 -5 8 C-4.34 8 -3.68 8 -3 8 C-3 7.01 -3 6.02 -3 5 C-2.34 5 -1.68 5 -1 5 C-0.67 3.35 -0.34 1.7 0 0 Z " fill="#0858CF" transform="translate(162,239)"/>
<path d="M0 0 C0.66 0.66 1.32 1.32 2 2 C4.12860662 2.36952049 4.12860662 2.36952049 6.5703125 2.4140625 C7.46621094 2.45273438 8.36210937 2.49140625 9.28515625 2.53125 C10.22230469 2.5621875 11.15945312 2.593125 12.125 2.625 C13.54232422 2.68300781 13.54232422 2.68300781 14.98828125 2.7421875 C17.32532375 2.83661346 19.66235501 2.92218394 22 3 C22.33 3.99 22.66 4.98 23 6 C23.66 6 24.32 6 25 6 C25.99 7.485 25.99 7.485 27 9 C27.66 9 28.32 9 29 9 C29 7.35 29 5.7 29 4 C30.258125 3.95875 31.51625 3.9175 32.8125 3.875 C33.52019531 3.85179687 34.22789062 3.82859375 34.95703125 3.8046875 C37 4 37 4 40 6 C39.71105501 12.64573468 37.00464712 17.72066414 33 23 C32.34 23 31.68 23 31 23 C30.44570312 21.95199219 29.89140625 20.90398437 29.3203125 19.82421875 C28.58862461 18.44526849 27.8568492 17.06636466 27.125 15.6875 C26.76019531 14.99720703 26.39539063 14.30691406 26.01953125 13.59570312 C25.66503906 12.92861328 25.31054688 12.26152344 24.9453125 11.57421875 C24.62062988 10.96151123 24.29594727 10.34880371 23.96142578 9.7175293 C23.05452942 8.09741352 22.0298971 6.54484566 21 5 C18.68246412 4.49156938 18.68246412 4.49156938 15.9921875 4.48828125 C15.00605469 4.45283203 14.01992187 4.41738281 13.00390625 4.38085938 C11.45509766 4.34702148 11.45509766 4.34702148 9.875 4.3125 C8.83472656 4.27833984 7.79445312 4.24417969 6.72265625 4.20898438 C4.14854493 4.12632942 1.57478171 4.05723845 -1 4 C-0.67 2.68 -0.34 1.36 0 0 Z " fill="#1B60C7" transform="translate(155,248)"/>
<path d="M0 0 C0.66 0 1.32 0 2 0 C3.76171875 2.51953125 3.76171875 2.51953125 5.6875 5.8125 C6.33074219 6.89144531 6.97398437 7.97039062 7.63671875 9.08203125 C9 12 9 12 8 15 C7.34 14.67 6.68 14.34 6 14 C6 13.34 6 12.68 6 12 C5.34 12 4.68 12 4 12 C4.185625 12.969375 4.37125 13.93875 4.5625 14.9375 C4.706875 15.948125 4.85125 16.95875 5 18 C2.95301586 20.04698414 -1.30411241 19.70045693 -4 20 C-5.125 15.25 -5.125 15.25 -4 13 C-4.66 13 -5.32 13 -6 13 C-6 14.32 -6 15.64 -6 17 C-7.32 16.67 -8.64 16.34 -10 16 C-8.52260269 13.5197633 -7.04317579 11.0407783 -5.5625 8.5625 C-5.14162109 7.85544922 -4.72074219 7.14839844 -4.28710938 6.41992188 C-1.11328125 1.11328125 -1.11328125 1.11328125 0 0 Z " fill="#2361C4" transform="translate(187,195)"/>
<path d="M0 0 C0.66 0.33 1.32 0.66 2 1 C1.01 2.32 0.02 3.64 -1 5 C54.11 5 109.22 5 166 5 C164 7 164 7 161.09895134 7.24609566 C159.22125903 7.24333028 159.22125903 7.24333028 157.30563354 7.24050903 C156.26176442 7.24307231 156.26176442 7.24307231 155.19680703 7.24568737 C152.85359502 7.24899437 150.51066631 7.23795891 148.16748047 7.22705078 C146.49232998 7.22648693 144.817179 7.22680272 143.14202881 7.22793579 C138.58439837 7.22851132 134.02687248 7.2167248 129.46926641 7.20278788 C124.70999521 7.1903137 119.9507218 7.18911264 115.19143677 7.18673706 C106.1745749 7.18051252 97.15776133 7.16408858 88.14092076 7.14403808 C77.87747303 7.12170932 67.61402304 7.11069327 57.35055709 7.10064721 C36.23367773 7.07972317 15.1168419 7.04452833 -6 7 C-4.02 4.69 -2.04 2.38 0 0 Z " fill="#426BB2" transform="translate(131,182)"/>
<path d="M0 0 C1.98 0.495 1.98 0.495 4 1 C1.74360728 3.80760973 0.57523871 4.9067992 -3.03782272 5.49219131 C-4.2361536 5.48850414 -5.43448448 5.48481697 -6.66912842 5.48101807 C-7.67268352 5.48614462 -7.67268352 5.48614462 -8.69651246 5.49137473 C-10.93710904 5.49796059 -13.1765061 5.475968 -15.41699219 5.45410156 C-17.02347282 5.45297323 -18.62995551 5.45360667 -20.23643494 5.45587158 C-24.59780968 5.45702021 -28.95874523 5.43348699 -33.32001781 5.40557575 C-37.87773098 5.38058682 -42.43545399 5.37822208 -46.9932251 5.37347412 C-55.62406032 5.36103696 -64.25469311 5.32820534 -72.88543916 5.28807616 C-82.71119304 5.24338148 -92.53695655 5.22137721 -102.36278677 5.20129442 C-122.57530421 5.15947335 -142.78763936 5.08910691 -163 5 C-163 4.67 -163 4.34 -163 4 C-109.54 4 -56.08 4 -1 4 C-0.67 2.68 -0.34 1.36 0 0 Z " fill="#1753CA" transform="translate(297,182)"/>
<path d="M0 0 C0.66 0 1.32 0 2 0 C2 2 2 2 -0.1875 4.5625 C-3.01309018 7.01134483 -4.35558268 7.68762137 -8 8 C-8.33 10.31 -8.66 12.62 -9 15 C-7.68 14.34 -6.36 13.68 -5 13 C-4.505 14.485 -4.505 14.485 -4 16 C-6.1217363 17.33878572 -8.24705188 18.67115476 -10.375 20 C-10.97828125 20.3815625 -11.5815625 20.763125 -12.203125 21.15625 C-16.7734375 24 -16.7734375 24 -19 24 C-18.67 23.01 -18.34 22.02 -18 21 C-17.01 21 -16.02 21 -15 21 C-15 20.34 -15 19.68 -15 19 C-15.66 18.67 -16.32 18.34 -17 18 C-16.67 17.34 -16.34 16.68 -16 16 C-17.48206495 16.254496 -18.96068615 16.52911762 -20.4375 16.8125 C-21.26121094 16.96332031 -22.08492187 17.11414063 -22.93359375 17.26953125 C-23.61550781 17.51058594 -24.29742187 17.75164062 -25 18 C-25.33 18.99 -25.66 19.98 -26 21 C-27.74784829 21.36463732 -29.49840502 21.7163078 -31.25 22.0625 C-32.71179688 22.35833984 -32.71179688 22.35833984 -34.203125 22.66015625 C-36.868119 22.98397535 -38.48871723 22.85503199 -41 22 C-39.9790625 21.70609375 -39.9790625 21.70609375 -38.9375 21.40625 C-24.98032902 17.10031427 -10.48151554 10.48151554 0 0 Z " fill="#0E52C0" transform="translate(193,101)"/>
<path d="M0 0 C1 3 1 3 -0.625 6.2734375 C-2.85265683 9.91054501 -5.34485309 13.29115521 -8 16.625 C-8.71349609 17.52351685 -8.71349609 17.52351685 -9.44140625 18.44018555 C-17.73258594 28.75139318 -26.45037126 37.95367299 -37 46 C-37.93328125 46.73734375 -38.8665625 47.4746875 -39.828125 48.234375 C-50.90849382 56.82610484 -63.64096528 65.40033236 -77 70 C-77.99 69.67 -78.98 69.34 -80 69 C-78.97003906 68.55011719 -77.94007813 68.10023438 -76.87890625 67.63671875 C-58.99413944 59.63563886 -40.57713001 48.80120108 -27.26953125 34.1796875 C-26 33 -26 33 -24 33 C-24 32.34 -24 31.68 -24 31 C-23.34 31 -22.68 31 -22 31 C-21.76410156 30.44054687 -21.52820313 29.88109375 -21.28515625 29.3046875 C-19.69762596 26.45774868 -17.70869575 24.46372739 -15.4375 22.125 C-9.30783274 15.52313453 -4.03934723 8.07869446 0 0 Z " fill="#181818" transform="translate(336,276)"/>
<path d="M0 0 C1.47906892 -0.02689216 2.95827483 -0.04634621 4.4375 -0.0625 C5.26121094 -0.07410156 6.08492187 -0.08570313 6.93359375 -0.09765625 C9 0 9 0 10 1 C11.48269895 1.29579705 12.97631385 1.5374542 14.47265625 1.75390625 C15.82133789 1.95209961 15.82133789 1.95209961 17.19726562 2.15429688 C18.14279297 2.28900391 19.08832031 2.42371094 20.0625 2.5625 C21.4865918 2.77036133 21.4865918 2.77036133 22.93945312 2.98242188 C25.2924565 3.32532186 27.64595483 3.66433937 30 4 C30 4.33 30 4.66 30 5 C28.02 5 26.04 5 24 5 C23.67 6.65 23.34 8.3 23 10 C14.61843511 9.61375277 6.98734511 7.4744657 -1 5 C-0.67 3.35 -0.34 1.7 0 0 Z " fill="#050F27" transform="translate(170,329)"/>
<path d="M0 0 C0.66 0 1.32 0 2 0 C4.39047894 2.39047894 6 4.54145481 6 8 C9.63 8 13.26 8 17 8 C17 8.99 17 9.98 17 11 C14.69 11.33 12.38 11.66 10 12 C10 12.99 10 13.98 10 15 C8.02 14.34 6.04 13.68 4 13 C4 12.34 4 11.68 4 11 C-0.62 11 -5.24 11 -10 11 C-10 7.7 -10 4.4 -10 1 C-9.34 1 -8.68 1 -8 1 C-8.020625 1.804375 -8.04125 2.60875 -8.0625 3.4375 C-8.29633621 5.93354885 -8.29633621 5.93354885 -7 7 C-4.66055264 6.71269945 -2.3260857 6.38063221 0 6 C0 4.02 0 2.04 0 0 Z " fill="#0A58CF" transform="translate(191,207)"/>
<path d="M0 0 C1.48046875 1.11328125 1.48046875 1.11328125 3 3 C3.91132256 10.16319127 3.150676 17.14472026 1 24 C0.34 24 -0.32 24 -1 24 C-1 25.32 -1 26.64 -1 28 C-1.66 28 -2.32 28 -3 28 C-3.33 28.66 -3.66 29.32 -4 30 C-4.99 29.01 -5.98 28.02 -7 27 C-6.34 26.67 -5.68 26.34 -5 26 C-3.923128 20.57285036 -3.70870095 15.07988323 -3.4375 9.5625 C-3.39431641 8.73556641 -3.35113281 7.90863281 -3.30664062 7.05664062 C-3.20161967 5.03790451 -3.10041441 3.01897049 -3 1 C-2.01 0.67 -1.02 0.34 0 0 Z " fill="#0657D0" transform="translate(221,49)"/>
<path d="M0 0 C0 0.66 0 1.32 0 2 C-2.08203125 3.5078125 -2.08203125 3.5078125 -4.8125 5.125 C-5.70582031 5.66382813 -6.59914063 6.20265625 -7.51953125 6.7578125 C-10 8 -10 8 -13 8 C-13.33 8.99 -13.66 9.98 -14 11 C-14.99 11 -15.98 11 -17 11 C-17.103125 11.5775 -17.20625 12.155 -17.3125 12.75 C-18 15 -18 15 -19.5 16.9375 C-21.21715068 19.29858218 -21.60234816 21.13690678 -22 24 C-22.66 23.67 -23.32 23.34 -24 23 C-24 22.34 -24 21.68 -24 21 C-27.8234006 22.27446687 -28.04975237 23.56756418 -30 27 C-32 29.8125 -32 29.8125 -34 32 C-34.99 32 -35.98 32 -37 32 C-32.25943131 18.35290832 -15.9680157 7.55115357 -3.734375 0.73828125 C-2 0 -2 0 0 0 Z " fill="#0F50BE" transform="translate(72,152)"/>
<path d="M0 0 C19.50957993 7.126465 37.90467303 26.82218322 50 43 C50.68707031 43.90492187 51.37414062 44.80984375 52.08203125 45.7421875 C55.83924706 50.85555813 55.83924706 50.85555813 57 53 C56.67 53.99 56.34 54.98 56 56 C55.50113281 55.23558594 55.00226563 54.47117188 54.48828125 53.68359375 C46.80255511 42.21709748 38.2175082 30.78117654 27.29296875 22.19921875 C26.86628906 21.80347656 26.43960937 21.40773438 26 21 C26 20.34 26 19.68 26 19 C25.46761719 18.76796875 24.93523437 18.5359375 24.38671875 18.296875 C21.27002892 16.6033545 18.5831776 14.44505767 15.8125 12.25 C11.17831114 8.62042092 6.48853464 5.21266199 1.51171875 2.05859375 C1.01285156 1.70925781 0.51398438 1.35992187 0 1 C0 0.67 0 0.34 0 0 Z " fill="#181818" transform="translate(279,36)"/>
<path d="M0 0 C1.72944503 3.15193229 2.64333944 6.21955605 3.5625 9.6875 C5.55104235 16.3997828 8.57594552 22.26138008 12.00219727 28.3503418 C15 33.7196061 15 33.7196061 15 37 C13 35.6875 13 35.6875 11 34 C11 33.01 11 32.02 11 31 C9.68 31 8.36 31 7 31 C5.84441727 28.12882484 4.70233133 25.25246071 3.5625 22.375 C3.23701172 21.56675781 2.91152344 20.75851563 2.57617188 19.92578125 C-0.19715843 12.89238686 -1.36456797 7.58093318 0 0 Z " fill="#070E23" transform="translate(24,226)"/>
<path d="M0 0 C0.33 1.65 0.66 3.3 1 5 C0.01 5.33 -0.98 5.66 -2 6 C-2.33 6.99 -2.66 7.98 -3 9 C-6.52868544 10.90006139 -8.90182628 12.11682699 -12.9375 11.6875 C-13.618125 11.460625 -14.29875 11.23375 -15 11 C-15 10.34 -15 9.68 -15 9 C-15.66 8.67 -16.32 8.34 -17 8 C-17.33 7.34 -17.66 6.68 -18 6 C-16.1128125 5.5978125 -16.1128125 5.5978125 -14.1875 5.1875 C-10.91346587 4.38051976 -9.1855546 3.64567136 -7 1 C-4 0 -4 0 0 0 Z " fill="#0756CD" transform="translate(177,117)"/>
<path d="M0 0 C-3.465 1.485 -3.465 1.485 -7 3 C-3.37 3.99 0.26 4.98 4 6 C1.20555502 8.79444498 -2.01696565 9.18276162 -5.75 10.0625 C-6.45382813 10.23587891 -7.15765625 10.40925781 -7.8828125 10.58789062 C-11.90208672 11.5628261 -15.90837766 12.37596326 -20 13 C-17.36404228 10.36404228 -14.93812819 9.92297888 -11.375 8.875 C-10.18648437 8.52179688 -8.99796875 8.16859375 -7.7734375 7.8046875 C-6.85820312 7.53914062 -5.94296875 7.27359375 -5 7 C-6.32 6.67 -7.64 6.34 -9 6 C-9 5.01 -9 4.02 -9 3 C-9.99 3.495 -9.99 3.495 -11 4 C-12.99960012 4.039992 -15.00047242 4.04346799 -17 4 C-17 4.66 -17 5.32 -17 6 C-19.64 6 -22.28 6 -25 6 C-21.06115169 3.76868434 -16.81316665 2.59766256 -12.5 1.3125 C-11.74074219 1.07466797 -10.98148438 0.83683594 -10.19921875 0.59179688 C-9.09513672 0.26211914 -9.09513672 0.26211914 -7.96875 -0.07421875 C-7.30294922 -0.27619873 -6.63714844 -0.47817871 -5.95117188 -0.6862793 C-3.69207946 -1.04950925 -2.16286448 -0.68870476 0 0 Z " fill="#114FB3" transform="translate(143,128)"/>
<path d="M0 0 C3 1 3 1 4.1875 3.0625 C4.455625 3.701875 4.72375 4.34125 5 5 C5 3.68 5 2.36 5 1 C7.375 1.1875 7.375 1.1875 10 2 C10.66 3.65 11.32 5.3 12 7 C17.61 7 23.22 7 29 7 C29 7.33 29 7.66 29 8 C28.41508789 7.99476318 27.83017578 7.98952637 27.22753906 7.98413086 C24.56837037 7.96329842 21.90921889 7.95031993 19.25 7.9375 C18.32960937 7.92912109 17.40921875 7.92074219 16.4609375 7.91210938 C15.57148438 7.90888672 14.68203125 7.90566406 13.765625 7.90234375 C12.54020996 7.89448853 12.54020996 7.89448853 11.29003906 7.88647461 C9.0561018 7.99721883 7.15390558 8.42944416 5 9 C2.29234605 8.84682979 -0.31258733 8.4031119 -3 8 C-2.37240135 5.07120629 -1.41377341 2.63904371 0 0 Z " fill="#2A64C2" transform="translate(167,239)"/>
<path d="M0 0 C0.66 0 1.32 0 2 0 C2 0.66 2 1.32 2 2 C3.98 1.34 5.96 0.68 8 0 C8.5625 1.9375 8.5625 1.9375 9 4 C8.67 4.33 8.34 4.66 8 5 C7.63239269 7.32817964 7.29758419 9.6618385 7 12 C5.68 12.33 4.36 12.66 3 13 C2.67 14.32 2.34 15.64 2 17 C1.01 16.34 0.02 15.68 -1 15 C-1 14.34 -1 13.68 -1 13 C-0.34 13 0.32 13 1 13 C1 10.03 1 7.06 1 4 C0.34 3.67 -0.32 3.34 -1 3 C-0.67 2.01 -0.34 1.02 0 0 Z " fill="#0C58D1" transform="translate(202,225)"/>
<path d="M0 0 C0.99 0.33 1.98 0.66 3 1 C3.125 7.75 3.125 7.75 2 10 C1.34 10 0.68 10 0 10 C1.22809091 11.64555699 1.22809091 11.64555699 3 13 C5.16299211 12.77242269 5.16299211 12.77242269 7 12 C10 16.75 10 16.75 10 19 C7.03 19 4.06 19 1 19 C0.67 17.35 0.34 15.7 0 14 C-1.32 15.32 -2.64 16.64 -4 18 C-4 14.54449843 -3.25130724 13.5490651 -1.4375 10.6875 C0.47513565 7.3994859 1.01855128 6.35247429 0.8125 2.4375 C0.544375 1.633125 0.27625 0.82875 0 0 Z " fill="#3E71C0" transform="translate(201,228)"/>
<path d="M0 0 C3.3 0 6.6 0 10 0 C10 5 10 5 8 7.3125 C7.34 7.869375 6.68 8.42625 6 9 C4.02 7.68 2.04 6.36 0 5 C0.33 6.98 0.66 8.96 1 11 C-1.96865509 8.45543849 -3.3619751 5.51005335 -5 2 C-4.34 2 -3.68 2 -3 2 C-3 2.66 -3 3.32 -3 4 C-2.01 4 -1.02 4 0 4 C0 2.68 0 1.36 0 0 Z " fill="#2B65BE" transform="translate(162,217)"/>
<path d="M0 0 C0.33 1.32 0.66 2.64 1 4 C0.34 4 -0.32 4 -1 4 C-0.34 5.65 0.32 7.3 1 9 C1.99 8.34 2.98 7.68 4 7 C6.62386487 10.06117568 7 10.73173127 7 15 C4.36 15.33 1.72 15.66 -1 16 C-2.125 11.25 -2.125 11.25 -1 9 C-1.66 9 -2.32 9 -3 9 C-3 10.32 -3 11.64 -3 13 C-4.32 12.67 -5.64 12.34 -7 12 C-4.69 8.04 -2.38 4.08 0 0 Z " fill="#316AC2" transform="translate(184,199)"/>
<path d="M0 0 C0 0.99 0 1.98 0 3 C1.98 3 3.96 3 6 3 C3.38832897 5.61167103 1.0278941 6.07131482 -2.5 7.125 C-4.24796875 7.65480469 -4.24796875 7.65480469 -6.03125 8.1953125 C-9 9 -9 9 -11 9 C-12.38232443 7.37373596 -13.71937515 5.7074998 -15 4 C-11.535 3.505 -11.535 3.505 -8 3 C-8 2.34 -8 1.68 -8 1 C-2.25 0 -2.25 0 0 0 Z " fill="#0557D2" transform="translate(134,131)"/>
<path d="M0 0 C0.66 0.33 1.32 0.66 2 1 C1.67 1.66 1.34 2.32 1 3 C1.33 3.66 1.66 4.32 2 5 C8.27 5.33 14.54 5.66 21 6 C20.505 3.03 20.505 3.03 20 0 C22 1.8125 22 1.8125 24 4 C24 4.99 24 5.98 24 7 C23.35450195 7.0093457 22.70900391 7.01869141 22.04394531 7.02832031 C19.11186056 7.08209101 16.18135992 7.1657234 13.25 7.25 C11.72632813 7.27126953 11.72632813 7.27126953 10.171875 7.29296875 C4.317854 7.36991535 4.317854 7.36991535 -0.703125 10.046875 C-1.13109375 10.69140625 -1.5590625 11.3359375 -2 12 C-2.91892116 8.32431536 -2.95904856 6.83619425 -2 3 C-6.62 3 -11.24 3 -16 3 C-16 2.67 -16 2.34 -16 2 C-14.92878906 1.93941406 -13.85757813 1.87882813 -12.75390625 1.81640625 C-11.35675609 1.73201463 -9.95962143 1.64736594 -8.5625 1.5625 C-7.50192383 1.50352539 -7.50192383 1.50352539 -6.41992188 1.44335938 C-2.91309581 1.52375562 -2.91309581 1.52375562 0 0 Z " fill="#1258C8" transform="translate(197,245)"/>
<path d="M0 0 C3.3 0 6.6 0 10 0 C9.690625 0.763125 9.38125 1.52625 9.0625 2.3125 C8.32106407 4.18789677 7.63771783 6.08684652 7 8 C5.68 8 4.36 8 3 8 C3 7.34 3 6.68 3 6 C1.68 6.99 0.36 7.98 -1 9 C-4 4.25 -4 4.25 -4 2 C-2.68 2.33 -1.36 2.66 0 3 C0 2.01 0 1.02 0 0 Z " fill="#2764C1" transform="translate(201,219)"/>
<path d="M0 0 C1.32 0 2.64 0 4 0 C5.125 4.75 5.125 4.75 4 7 C1.08029624 8.50156193 -0.81771072 9.00364579 -4.125 8.9375 C-7.02584603 8.70929408 -7.02584603 8.70929408 -8.875 10.5 C-9.24625 10.995 -9.6175 11.49 -10 12 C-10.5 9.8125 -10.5 9.8125 -10 7 C-7.16114834 4.6018833 -3.81204169 2 0 2 C0 1.34 0 0.68 0 0 Z " fill="#0558D3" transform="translate(72,152)"/>
<path d="M0 0 C0.99 0.66 1.98 1.32 3 2 C2.67 3.65 2.34 5.3 2 7 C-0.475 6.505 -0.475 6.505 -3 6 C-3 7.32 -3 8.64 -3 10 C-9.00477279 9.35083537 -14.400781 7.14204997 -20 5 C-16.45332822 3.74872094 -14.27746562 4.27714947 -10.75 5.4375 C-9.85796875 5.72496094 -8.9659375 6.01242187 -8.046875 6.30859375 C-7.37140625 6.53675781 -6.6959375 6.76492188 -6 7 C-6 5.68 -6 4.36 -6 3 C-3.69 3.66 -1.38 4.32 1 5 C0.67 3.35 0.34 1.7 0 0 Z " fill="#173E8D" transform="translate(201,343)"/>
<path d="M0 0 C0.66 0.33 1.32 0.66 2 1 C-0.475 5.455 -0.475 5.455 -3 10 C-2.34 10 -1.68 10 -1 10 C-1 9.01 -1 8.02 -1 7 C0.98 6.67 2.96 6.34 5 6 C4.21625 6.721875 3.4325 7.44375 2.625 8.1875 C0.15587562 10.83299041 -0.93260278 12.60373611 -2 16 C-2.99 15.67 -3.98 15.34 -5 15 C-5.76681614 6.22421525 -5.76681614 6.22421525 -3.88671875 3.22265625 C-2.5 1.875 -2.5 1.875 0 0 Z " fill="#164BAB" transform="translate(193,35)"/>
<path d="M0 0 C7.59 0 15.18 0 23 0 C21 2 21 2 17.3046875 2.1953125 C15.82799892 2.182009 14.35137642 2.15814835 12.875 2.125 C12.12089844 2.11597656 11.36679688 2.10695312 10.58984375 2.09765625 C8.72642746 2.0740687 6.86317407 2.03819719 5 2 C5 3.32 5 4.64 5 6 C4.01 6 3.02 6 2 6 C0 3 0 3 0 0 Z " fill="#2560BF" transform="translate(154,213)"/>
<path d="M0 0 C0 0.66 0 1.32 0 2 C-0.99 2.33 -1.98 2.66 -3 3 C-3.33 3.66 -3.66 4.32 -4 5 C-6.33010909 5.67784992 -8.66359824 6.34416793 -11 7 C-11.66 7.66 -12.32 8.32 -13 9 C-15.32275177 9.40047444 -17.65739357 9.7397104 -20 10 C-20.33 10.99 -20.66 11.98 -21 13 C-22.32 12.67 -23.64 12.34 -25 12 C-5.48 0 -5.48 0 0 0 Z " fill="#164CAA" transform="translate(167,162)"/>
<path d="M0 0 C1.04296875 1.890625 1.04296875 1.890625 2 4 C1.3125 5.75 1.3125 5.75 0 8 C-2.59152311 14.04241141 -3.64094758 19.47145638 -4.1875 26 C-4.26935547 26.87011719 -4.35121094 27.74023438 -4.43554688 28.63671875 C-4.63358691 30.75691206 -4.81820556 32.87835199 -5 35 C-5.33 35 -5.66 35 -6 35 C-6.37827188 18.86039966 -6.37827188 18.86039966 -4 12 C-3.66226562 10.96230469 -3.32453125 9.92460937 -2.9765625 8.85546875 C-2.00504401 5.89612697 -1.01142445 2.94589646 0 0 Z " fill="#1246A1" transform="translate(30,191)"/>
<path d="M0 0 C0.99 0 1.98 0 3 0 C3 1.32 3 2.64 3 4 C3.72703125 4.10957031 4.4540625 4.21914063 5.203125 4.33203125 C12.58882317 5.49669904 19.77552138 7.07859611 27 9 C27 9.33 27 9.66 27 10 C21.45001303 10.22023758 16.62999875 9.44887404 11.25 8.125 C10.11884766 7.86396484 10.11884766 7.86396484 8.96484375 7.59765625 C5.50641276 6.76836996 2.98555561 5.99037041 0 4 C0 2.68 0 1.36 0 0 Z " fill="#154DB0" transform="translate(166,330)"/>
<path d="M0 0 C2.4375 0.6875 2.4375 0.6875 5 2 C6.83087805 6.27204879 5.41706209 9.74881373 4 14 C3.67 14 3.34 14 3 14 C2.49307308 12.4188708 1.99473557 10.83498617 1.5 9.25 C1.2215625 8.36828125 0.943125 7.4865625 0.65625 6.578125 C0 4 0 4 0 0 Z " fill="#2261C1" transform="translate(162,222)"/>
<path d="M0 0 C2.31 0 4.62 0 7 0 C6.67 2.31 6.34 4.62 6 7 C5.01 7 4.02 7 3 7 C3 7.66 3 8.32 3 9 C2.34 9 1.68 9 1 9 C0.67 6.03 0.34 3.06 0 0 Z " fill="#0D59D1" transform="translate(211,215)"/>
<path d="M0 0 C-1.37995646 4.67062185 -3.4869275 6.50086323 -7.4375 9.25 C-8.88962891 10.27867187 -8.88962891 10.27867187 -10.37109375 11.328125 C-13 13 -13 13 -16 14 C-15.67 13.01 -15.34 12.02 -15 11 C-14.01 11 -13.02 11 -12 11 C-11.67 10.01 -11.34 9.02 -11 8 C-10.01 8 -9.02 8 -8 8 C-8.33 6.68 -8.66 5.36 -9 4 C-7.35 4 -5.7 4 -4 4 C-4 3.01 -4 2.02 -4 1 C-2 0 -2 0 0 0 Z " fill="#1251B8" transform="translate(230,278)"/>
<path d="M0 0 C0.66 0.66 1.32 1.32 2 2 C4.12860662 2.36952049 4.12860662 2.36952049 6.5703125 2.4140625 C7.46621094 2.45273438 8.36210937 2.49140625 9.28515625 2.53125 C10.22230469 2.5621875 11.15945312 2.593125 12.125 2.625 C13.54232422 2.68300781 13.54232422 2.68300781 14.98828125 2.7421875 C17.32532375 2.83661346 19.66235501 2.92218394 22 3 C22.33 3.99 22.66 4.98 23 6 C23.66 6 24.32 6 25 6 C26.0625 7.8125 26.0625 7.8125 27 10 C26.67 10.99 26.34 11.98 26 13 C25.77030518 12.43410156 25.54061035 11.86820312 25.30395508 11.28515625 C24.0792839 8.80365026 22.94912494 6.97575375 21 5 C17.23213833 3.85232227 13.60268502 3.92485249 9.6875 4 C8.66076172 3.98839844 7.63402344 3.97679687 6.57617188 3.96484375 C4.048755 3.9413329 1.526955 3.95421146 -1 4 C-0.67 2.68 -0.34 1.36 0 0 Z " fill="#3966B9" transform="translate(155,248)"/>
<path d="M0 0 C1.7201678 3.19568952 2.84259139 6.41878245 3.9375 9.875 C5.33274253 14.16001452 6.90763698 18.02451026 9 22 C9 22.66 9 23.32 9 24 C8.34 24 7.68 24 7 24 C6.01330241 22.10807525 5.0359398 20.21128022 4.0625 18.3125 C3.51722656 17.25675781 2.97195312 16.20101562 2.41015625 15.11328125 C0.08056331 9.97010791 -0.11008954 5.61456638 0 0 Z " fill="#124396" transform="translate(39,223)"/>
<path d="M0 0 C4.68265761 0.50883504 7.57155809 1.71541152 11.4375 4.375 C15.54279537 7.10625525 19.39525968 9.26043143 24 11 C22 12 22 12 19.53125 11.21484375 C12.7028019 8.33739204 6.09361081 5.26013499 0 1 C0 0.67 0 0.34 0 0 Z " fill="#16459B" transform="translate(92,310)"/>
<path d="M0 0 C0.38969971 0.4844458 0.77939941 0.9688916 1.1809082 1.46801758 C3.56608279 3.47673728 5.01399593 3.42236982 8.10546875 3.51171875 C9.57983398 3.56489258 9.57983398 3.56489258 11.08398438 3.61914062 C12.62022461 3.65297852 12.62022461 3.65297852 14.1875 3.6875 C15.74114258 3.73874023 15.74114258 3.73874023 17.32617188 3.79101562 C19.8840066 3.87352642 22.44149723 3.94266572 25 4 C25 4.33 25 4.66 25 5 C16.97497656 5.79681084 9.06350113 6.12867289 1 6 C0.67 4.02 0.34 2.04 0 0 Z " fill="#4674C2" transform="translate(196,209)"/>
<path d="M0 0 C0.66 0.33 1.32 0.66 2 1 C1.01 2.32 0.02 3.64 -1 5 C7.58 5 16.16 5 25 5 C25 5.33 25 5.66 25 6 C9.655 6.495 9.655 6.495 -6 7 C-4.02 4.69 -2.04 2.38 0 0 Z " fill="#355FAB" transform="translate(131,182)"/>
<path d="M0 0 C0 0.66 0 1.32 0 2 C-2.31 2 -4.62 2 -7 2 C-6.67 4.64 -6.34 7.28 -6 10 C-6.33 9.01 -6.66 8.02 -7 7 C-7.99 7.33 -8.98 7.66 -10 8 C-10.93423645 4.98968256 -11.04449911 4.13349732 -10 1 C-6.78548731 -0.60725635 -3.56387464 -0.05748185 0 0 Z " fill="#1B5CC4" transform="translate(191,250)"/>
<path d="M0 0 C2.0625 0.4375 2.0625 0.4375 4 1 C2.58531689 1.96125903 1.1681636 2.91888325 -0.25 3.875 C-1.03890625 4.40867188 -1.8278125 4.94234375 -2.640625 5.4921875 C-4.71555692 6.81822015 -6.77614972 7.94928175 -9 9 C-8.74438677 6.6568787 -8.40729228 4.32156597 -8 2 C-5.53925394 0.76962697 -3.7202437 1 -1 1 C-0.67 0.67 -0.34 0.34 0 0 Z " fill="#1051BB" transform="translate(72,159)"/>
<path d="M0 0 C0 0.66 0 1.32 0 2 C-2.08203125 3.5078125 -2.08203125 3.5078125 -4.8125 5.125 C-5.70582031 5.66382813 -6.59914063 6.20265625 -7.51953125 6.7578125 C-10 8 -10 8 -13 8 C-13.33 8.99 -13.66 9.98 -14 11 C-15.65 11.33 -17.3 11.66 -19 12 C-14.80892044 7.06051338 -6.66287101 0 0 0 Z " fill="#1649A4" transform="translate(72,152)"/>
<path d="M0 0 C5.75 0.875 5.75 0.875 8 2 C8.625 5.0625 8.625 5.0625 9 8 C4.25 7.125 4.25 7.125 2 6 C2 7.32 2 8.64 2 10 C1.34 9.67 0.68 9.34 0 9 C0.33 7.68 0.66 6.36 1 5 C2.32 5 3.64 5 5 5 C5 4.01 5 3.02 5 2 C3.35 1.67 1.7 1.34 0 1 C0 0.67 0 0.34 0 0 Z " fill="#1053C1" transform="translate(193,340)"/>
<path d="M0 0 C0 0.66 0 1.32 0 2 C-1.65 2.33 -3.3 2.66 -5 3 C-5.33 3.99 -5.66 4.98 -6 6 C-7.74784829 6.36463732 -9.49840502 6.7163078 -11.25 7.0625 C-12.71179688 7.35833984 -12.71179688 7.35833984 -14.203125 7.66015625 C-16.868119 7.98397535 -18.48871723 7.85503199 -21 7 C-20.21496094 6.74605469 -19.42992187 6.49210937 -18.62109375 6.23046875 C-11.66132474 3.97151026 -11.66132474 3.97151026 -4.875 1.25 C-2 0 -2 0 0 0 Z " fill="#1548A2" transform="translate(173,116)"/>
<path d="M0 0 C2 3 2 3 2 7 C1.01 7.33 0.02 7.66 -1 8 C-1.99 9.485 -1.99 9.485 -3 11 C-3 10.34 -3 9.68 -3 9 C-3.66 9 -4.32 9 -5 9 C-4.67 7.35 -4.34 5.7 -4 4 C-3.34 4 -2.68 4 -2 4 C-1.34 2.68 -0.68 1.36 0 0 Z " fill="#0558D6" transform="translate(211,84)"/>
<path d="M0 0 C4.29 0 8.58 0 13 0 C13 0.66 13 1.32 13 2 C9.7 2 6.4 2 3 2 C3 3.32 3 4.64 3 6 C2.01 6 1.02 6 0 6 C0 4.02 0 2.04 0 0 Z " fill="#0858D4" transform="translate(159,215)"/>
<path d="M0 0 C0.33 0 0.66 0 1 0 C1.5102771 2.80652405 1.33364575 4.48735065 -0.23046875 6.890625 C-1.75318087 8.74043825 -3.16785754 10.45315466 -5 12 C-5.99 12 -6.98 12 -8 12 C-6.51272258 7.09198451 -3.55364515 3.59508707 0 0 Z " fill="#114AA6" transform="translate(43,172)"/>
<path d="M0 0 C2.64 0 5.28 0 8 0 C6.125 4.75 6.125 4.75 5 7 C4.01 6.67 3.02 6.34 2 6 C0.8125 2.9375 0.8125 2.9375 0 0 Z " fill="#D0E1F1" transform="translate(203,219)"/>
<path d="M0 0 C1.09054688 0.02320313 2.18109375 0.04640625 3.3046875 0.0703125 C4.40039062 0.08835938 5.49609375 0.10640625 6.625 0.125 C7.46804687 0.14820313 8.31109375 0.17140625 9.1796875 0.1953125 C8.5196875 1.8453125 7.8596875 3.4953125 7.1796875 5.1953125 C6.8496875 3.8753125 6.5196875 2.5553125 6.1796875 1.1953125 C3.8696875 1.1953125 1.5596875 1.1953125 -0.8203125 1.1953125 C-0.4903125 2.5153125 -0.1603125 3.8353125 0.1796875 5.1953125 C-2.7903125 5.1953125 -5.7603125 5.1953125 -8.8203125 5.1953125 C-8.2015625 4.7415625 -7.5828125 4.2878125 -6.9453125 3.8203125 C-2.14364896 0.14845214 -2.14364896 0.14845214 0 0 Z " fill="#205BBF" transform="translate(211.8203125,213.8046875)"/>
<path d="M0 0 C2 1.8125 2 1.8125 4 4 C4 4.99 4 5.98 4 7 C-3.59 7.33 -11.18 7.66 -19 8 C-19 7.34 -19 6.68 -19 6 C-12.4 6 -5.8 6 1 6 C0.67 4.02 0.34 2.04 0 0 Z " fill="#2A60B9" transform="translate(217,245)"/>
<path d="M0 0 C0.99 0.33 1.98 0.66 3 1 C4.1875 4.0625 4.1875 4.0625 5 7 C2.36 7 -0.28 7 -3 7 C-1.125 2.25 -1.125 2.25 0 0 Z " fill="#CFE0F2" transform="translate(167,239)"/>
<path d="M0 0 C2 1.8125 2 1.8125 4 4 C4 4.99 4 5.98 4 7 C1.69 7 -0.62 7 -3 7 C-2.25 2.25 -2.25 2.25 0 0 Z " fill="#CEE0F0" transform="translate(187,206)"/>
<path d="M0 0 C1.258125 -0.04125 2.51625 -0.0825 3.8125 -0.125 C4.52019531 -0.14820313 5.22789062 -0.17140625 5.95703125 -0.1953125 C8 0 8 0 11 2 C12.9896995 2.39013716 14.99019869 2.73202649 17 3 C17 3.66 17 4.32 17 5 C10.95198929 4.45018084 5.69398894 3.09570426 0 1 C0 0.67 0 0.34 0 0 Z " fill="#1546A2" transform="translate(158,341)"/>
<path d="M0 0 C0.85271484 0.30744141 0.85271484 0.30744141 1.72265625 0.62109375 C6.5084454 2.29092669 10.95943201 3.46376936 16 4 C16 4.66 16 5.32 16 6 C4.50649351 6.19480519 4.50649351 6.19480519 1.1875 3.5625 C0 2 0 2 0 0 Z " fill="#154BB0" transform="translate(71,272)"/>
<path d="M0 0 C2.31 0 4.62 0 7 0 C6.42415568 2.38564077 5.77772405 4.66682784 5 7 C2 6 2 6 0 3 C0 2.01 0 1.02 0 0 Z " fill="#D2E5F2" transform="translate(184,252)"/>
<path d="M0 0 C2.31 0 4.62 0 7 0 C6.43628586 3.26954202 5.50037734 4.82575883 3 7 C0 3.375 0 3.375 0 0 Z " fill="#DAE7F4" transform="translate(165,219)"/>
<path d="M0 0 C0.33 0.66 0.66 1.32 1 2 C1.66 2 2.32 2 3 2 C1.6062718 6.43458973 -0.60582235 8.87378374 -4 12 C-4 9.36 -4 6.72 -4 4 C-3.01 3.67 -2.02 3.34 -1 3 C-0.67 2.01 -0.34 1.02 0 0 Z " fill="#1152BB" transform="translate(210,89)"/>
<path d="M0 0 C-6.40440846 3.44852763 -11.83153129 4.28673875 -19 4 C-19 3.67 -19 3.34 -19 3 C-12.49577707 0.99134292 -6.8218683 -0.38614349 0 0 Z " fill="#134CAE" transform="translate(270,145)"/>
<path d="M0 0 C1.32 0.33 2.64 0.66 4 1 C4.33 2.65 4.66 4.3 5 6 C2.69 6 0.38 6 -2 6 C-1.34 4.02 -0.68 2.04 0 0 Z " fill="#D7E6F4" transform="translate(205,240)"/>
<path d="M0 0 C1.32 0 2.64 0 4 0 C4 0.66 4 1.32 4 2 C10.6 2.33 17.2 2.66 24 3 C24 3.33 24 3.66 24 4 C16.74 4 9.48 4 2 4 C1.34 2.68 0.68 1.36 0 0 Z " fill="#E5EFF7" transform="translate(197,209)"/>
<path d="M0 0 C0.99 0 1.98 0 3 0 C1 6 -1 12 -3 18 C-4.07310858 14.72814447 -3.89263102 12.57052408 -3.0625 9.25 C-2.77052734 8.05117187 -2.77052734 8.05117187 -2.47265625 6.828125 C-2.31667969 6.22484375 -2.16070313 5.6215625 -2 5 C-1.34 5 -0.68 5 0 5 C-0.2784375 4.0409375 -0.2784375 4.0409375 -0.5625 3.0625 C-0.706875 2.381875 -0.85125 1.70125 -1 1 C-0.67 0.67 -0.34 0.34 0 0 Z " fill="#041334" transform="translate(30,185)"/>
<path d="M0 0 C-2.06345528 4.44436522 -3.47191041 7.40074918 -8.1875 9.25 C-9.115625 9.4975 -10.04375 9.745 -11 10 C-10.06862408 8.70391053 -9.1296434 7.41328368 -8.1875 6.125 C-7.66542969 5.40570313 -7.14335937 4.68640625 -6.60546875 3.9453125 C-4.67810267 1.60996382 -3.15532658 0 0 0 Z " fill="#050D25" transform="translate(315,170)"/>
<path d="M0 0 C3.63 0 7.26 0 11 0 C11 0.99 11 1.98 11 3 C3.57142857 3.14285714 3.57142857 3.14285714 0 2 C0 1.34 0 0.68 0 0 Z " fill="#090309" transform="translate(170,331)"/>
<path d="M0 0 C0.99 0 1.98 0 3 0 C2.67 2.64 2.34 5.28 2 8 C4.64 8 7.28 8 10 8 C10 8.33 10 8.66 10 9 C7.03 9 4.06 9 1 9 C-1.125 3.375 -1.125 3.375 0 0 Z " fill="#0E57C6" transform="translate(162,239)"/>
<path d="M0 0 C0.33 0 0.66 0 1 0 C1.20140476 3.62528568 0.85776765 5.86501708 -1 9 C-1.99 9 -2.98 9 -4 9 C-4 10.65 -4 12.3 -4 14 C-4.66 13.67 -5.32 13.34 -6 13 C-5.52467862 7.92990529 -2.95637706 4.02506742 0 0 Z " fill="#D1E1EF" transform="translate(178,221)"/>
<path d="M0 0 C0.33 0.66 0.66 1.32 1 2 C-1.16798732 7.4770206 -1.16798732 7.4770206 -4.1875 9.375 C-4.785625 9.58125 -5.38375 9.7875 -6 10 C-6 10.66 -6 11.32 -6 12 C-7.32 12.33 -8.64 12.66 -10 13 C-9.67 12.34 -9.34 11.68 -9 11 C-8.34 11 -7.68 11 -7 11 C-6.6596875 10.2265625 -6.6596875 10.2265625 -6.3125 9.4375 C-4.5024447 6.07596873 -2.26003596 3.07088856 0 0 Z " fill="#061537" transform="translate(214,90)"/>
<path d="M0 0 C0.66 0 1.32 0 2 0 C2 1.65 2 3.3 2 5 C3.65 5 5.3 5 7 5 C5.68 5.33 4.36 5.66 3 6 C3 6.66 3 7.32 3 8 C1.0625 7.6875 1.0625 7.6875 -1 7 C-2 4 -2 4 -1.0625 1.8125 C-0.5365625 0.9153125 -0.5365625 0.9153125 0 0 Z " fill="#0459D1" transform="translate(199,243)"/>
<path d="M0 0 C0 0.66 0 1.32 0 2 C-0.99 2.33 -1.98 2.66 -3 3 C-3.33 3.66 -3.66 4.32 -4 5 C-6.06640625 5.4140625 -6.06640625 5.4140625 -8.5625 5.625 C-9.38878906 5.69976562 -10.21507812 5.77453125 -11.06640625 5.8515625 C-12.02353516 5.92503906 -12.02353516 5.92503906 -13 6 C-10.83049884 3.57206296 -8.99994161 2.3943719 -5.9375 1.3125 C-5.24527344 1.06113281 -4.55304688 0.80976563 -3.83984375 0.55078125 C-2 0 -2 0 0 0 Z " fill="#15479F" transform="translate(167,162)"/>
<path d="M0 0 C0 2 0 2 -2.0625 4.5 C-5.50365568 7.42864313 -7.65659921 8.06318806 -12 9 C-3.25 0 -3.25 0 0 0 Z " fill="#1449A2" transform="translate(195,101)"/>
<path d="M0 0 C0.33 0 0.66 0 1 0 C1.2766209 2.8954992 1.52198324 5.78811046 1.75 8.6875 C1.87181641 9.91243164 1.87181641 9.91243164 1.99609375 11.16210938 C2.30850226 15.44904834 2.41179734 17.36041712 0.015625 21.08203125 C-0.64953125 21.71496094 -1.3146875 22.34789063 -2 23 C-1.84660156 22.19304687 -1.69320312 21.38609375 -1.53515625 20.5546875 C-0.9111048 16.40952821 -0.65372796 12.3077704 -0.4375 8.125 C-0.39431641 7.34125 -0.35113281 6.5575 -0.30664062 5.75 C-0.20146649 3.83349351 -0.10032075 1.91676667 0 0 Z " fill="#061840" transform="translate(225,52)"/>
<path d="M0 0 C0.66 0.33 1.32 0.66 2 1 C1.525625 1.598125 1.05125 2.19625 0.5625 2.8125 C-1.16465744 5.00382924 -1.16465744 5.00382924 -2 8 C-4.97 7.505 -4.97 7.505 -8 7 C-5.53058944 4.40062046 -2.81939117 2.20979308 0 0 Z " fill="#051029" transform="translate(198,312)"/>
<path d="M0 0 C3.9252025 3.70090521 6.94580156 7.54959656 10 12 C8.35 11.67 6.7 11.34 5 11 C5 9.68 5 8.36 5 7 C4.34 7 3.68 7 3 7 C0 2.61538462 0 2.61538462 0 0 Z " fill="#1848A2" transform="translate(50,250)"/>
<path d="M0 0 C0.33 0.66 0.66 1.32 1 2 C0.67 2.99 0.34 3.98 0 5 C-0.66 5 -1.32 5 -2 5 C-2.33 6.65 -2.66 8.3 -3 10 C-3.66 10 -4.32 10 -5 10 C-5 10.99 -5 11.98 -5 13 C-5.99 13.33 -6.98 13.66 -8 14 C-6.6744419 10.37723685 -5.05653045 7.36494652 -2.875 4.1875 C-2.33617187 3.39730469 -1.79734375 2.60710937 -1.2421875 1.79296875 C-0.83226562 1.20128906 -0.42234375 0.60960937 0 0 Z " fill="#3F70BB" transform="translate(164,234)"/>
<path d="M0 0 C1.32 0 2.64 0 4 0 C6.32590854 3.63423209 6.16265833 6.77088331 6 11 C5.34 10.34 4.68 9.68 4 9 C3.01 9.66 2.02 10.32 1 11 C1.09539062 10.37351563 1.19078125 9.74703125 1.2890625 9.1015625 C1.39992188 8.28429687 1.51078125 7.46703125 1.625 6.625 C1.74101562 5.81289062 1.85703125 5.00078125 1.9765625 4.1640625 C1.98429687 3.44992188 1.99203125 2.73578125 2 2 C1.34 1.34 0.68 0.68 0 0 Z " fill="#050D25" transform="translate(331,143)"/>
<path d="M0 0 C0.33 0 0.66 0 1 0 C1.3125 2.1875 1.3125 2.1875 1 5 C-1.375 7.625 -1.375 7.625 -4 10 C-4.99 11.485 -4.99 11.485 -6 13 C-6.66 12.67 -7.32 12.34 -8 12 C-7.50628906 11.30132812 -7.01257813 10.60265625 -6.50390625 9.8828125 C-5.86324219 8.97273438 -5.22257813 8.06265625 -4.5625 7.125 C-3.92441406 6.22007813 -3.28632813 5.31515625 -2.62890625 4.3828125 C-1.00481862 2.12261419 -1.00481862 2.12261419 0 0 Z " fill="#16449A" transform="translate(211,79)"/>
<path d="M0 0 C2.04136395 -0.05451714 4.08315856 -0.09302485 6.125 -0.125 C7.83042969 -0.15980469 7.83042969 -0.15980469 9.5703125 -0.1953125 C13.05757767 0.00327891 15.7553862 0.7475199 19 2 C19 2.33 19 2.66 19 3 C12.84765625 3.09765625 12.84765625 3.09765625 11 3 C10.67 2.67 10.34 2.34 10 2 C8.31391034 1.92794489 6.62499341 1.91613932 4.9375 1.9375 C4.01839844 1.94652344 3.09929687 1.95554687 2.15234375 1.96484375 C1.44207031 1.97644531 0.73179687 1.98804688 0 2 C0 1.34 0 0.68 0 0 Z " fill="#164CAA" transform="translate(169,328)"/>
<path d="M0 0 C1.32 0.66 2.64 1.32 4 2 C3.25 8.75 3.25 8.75 1 11 C1.33 8.69 1.66 6.38 2 4 C0.02 4.99 0.02 4.99 -2 6 C-1.34 4.02 -0.68 2.04 0 0 Z " fill="#366DC3" transform="translate(191,252)"/>
<path d="M0 0 C-1.38009621 3.33523252 -2.84950652 5.18607951 -6 7 C-6.99 6.67 -7.98 6.34 -9 6 C-7.8803014 4.99406757 -6.7540588 3.9954151 -5.625 3 C-4.68527344 2.1646875 -4.68527344 2.1646875 -3.7265625 1.3125 C-2 0 -2 0 0 0 Z " fill="#1348A8" transform="translate(142,175)"/>
<path d="M0 0 C0.33 0.99 0.66 1.98 1 3 C-0.63167477 6.16736868 -1.83357085 6.93473367 -5.1875 8.25 C-6.115625 8.4975 -7.04375 8.745 -8 9 C-7.04270084 7.87411986 -6.08412105 6.7493285 -5.125 5.625 C-4.59132813 4.99851563 -4.05765625 4.37203125 -3.5078125 3.7265625 C-2.38567993 2.44163349 -1.20628025 1.20628025 0 0 Z " fill="#061537" transform="translate(329,156)"/>
<path d="M0 0 C0.33 1.32 0.66 2.64 1 4 C2.32 3.67 3.64 3.34 5 3 C4.34 4.98 3.68 6.96 3 9 C2.566875 8.505 2.13375 8.01 1.6875 7.5 C0.00259517 5.66781808 0.00259517 5.66781808 -3 6 C-2.01 4.02 -1.02 2.04 0 0 Z " fill="#336CC1" transform="translate(172,219)"/>
<path d="M0 0 C-1.03094867 2.57737166 -1.5108626 3.76284247 -4.0625 5 C-6.21280279 5.8295822 -6.21280279 5.8295822 -6.75 8.125 C-6.8325 8.74375 -6.915 9.3625 -7 10 C-7.67578125 8.203125 -7.67578125 8.203125 -8 6 C-6.85546875 4.296875 -6.85546875 4.296875 -5.1875 2.75 C-4.64480469 2.22921875 -4.10210937 1.7084375 -3.54296875 1.171875 C-2 0 -2 0 0 0 Z " fill="#303030" transform="translate(273,209)"/>
<path d="M0 0 C0.33 1.32 0.66 2.64 1 4 C-1.97 6.475 -1.97 6.475 -5 9 C-5.66 8.67 -6.32 8.34 -7 8 C-5.625 6 -5.625 6 -4 4 C-3.34 4 -2.68 4 -2 4 C-1.34 2.68 -0.68 1.36 0 0 Z " fill="#051430" transform="translate(58,172)"/>
<path d="M0 0 C-4.29 2.31 -8.58 4.62 -13 7 C-13 6.01 -13 5.02 -13 4 C-10.69 3.34 -8.38 2.68 -6 2 C-6 1.34 -6 0.68 -6 0 C-4 -1 -4 -1 0 0 Z " fill="#040B2C" transform="translate(157,166)"/>
<path d="M0 0 C0 0.66 0 1.32 0 2 C-0.99 2 -1.98 2 -3 2 C-3 2.66 -3 3.32 -3 4 C-5.25 5.6875 -5.25 5.6875 -8 7 C-10.171875 6.58203125 -10.171875 6.58203125 -12 6 C-10.37829621 4.99466333 -8.75252763 3.99588093 -7.125 3 C-5.76761719 2.1646875 -5.76761719 2.1646875 -4.3828125 1.3125 C-2 0 -2 0 0 0 Z " fill="#061237" transform="translate(83,156)"/>
<path d="M0 0 C0 0.66 0 1.32 0 2 C-1.98 2 -3.96 2 -6 2 C-6 2.66 -6 3.32 -6 4 C-8.64 4 -11.28 4 -14 4 C-9.39033958 1.51787516 -5.27072485 0 0 0 Z " fill="#144AA4" transform="translate(132,130)"/>
<path d="M0 0 C0.33 0.66 0.66 1.32 1 2 C0.67 2.99 0.34 3.98 0 5 C-0.99 5 -1.98 5 -3 5 C-3 5.99 -3 6.98 -3 8 C-4.32 7.67 -5.64 7.34 -7 7 C-5.625 5 -5.625 5 -4 3 C-3.34 3 -2.68 3 -2 3 C-2 2.34 -2 1.68 -2 1 C-1.34 0.67 -0.68 0.34 0 0 Z " fill="#0957D9" transform="translate(197,100)"/>
<path d="M0 0 C0.33 1.32 0.66 2.64 1 4 C-1.97 6.475 -1.97 6.475 -5 9 C-5.66 8.67 -6.32 8.34 -7 8 C-5.71937515 6.2925002 -4.38232443 4.62626404 -3 3 C-2.34 3 -1.68 3 -1 3 C-0.67 2.01 -0.34 1.02 0 0 Z " fill="#144AAC" transform="translate(202,92)"/>
<path d="M0 0 C0.99 0 1.98 0 3 0 C3 0.99 3 1.98 3 3 C3.99 3.33 4.98 3.66 6 4 C6 4.99 6 5.98 6 7 C4.125 6.875 4.125 6.875 2 6 C0.75 2.9375 0.75 2.9375 0 0 Z " fill="#060607" transform="translate(32,257)"/>
<path d="M0 0 C0 0.99 0 1.98 0 3 C-0.99 3.495 -0.99 3.495 -2 4 C-3.13350534 6.01669827 -3.13350534 6.01669827 -4 8 C-5.32 7.01 -6.64 6.02 -8 5 C-5.64722731 2.27573689 -3.37503669 1.1858237 0 0 Z " fill="#070A1E" transform="translate(324,163)"/>
<path d="M0 0 C0.66 0 1.32 0 2 0 C0.6062718 4.43458973 -1.60582235 6.87378374 -5 10 C-3.85569823 6.12697862 -2.76679902 2.99736561 0 0 Z " fill="#030F2D" transform="translate(215,291)"/>
<path d="M0 0 C-0.33 1.32 -0.66 2.64 -1 4 C-1.99 3.01 -2.98 2.02 -4 1 C-4.66 2.65 -5.32 4.3 -6 6 C-7 4 -7 4 -7 0 C-3.86650268 -1.04449911 -3.01031744 -0.93423645 0 0 Z " fill="#2464C0" transform="translate(171,238)"/>
<path d="M0 0 C4.48525648 0.656379 8.66914029 1.70074209 13 3 C13 3.33 13 3.66 13 4 C11.20741442 3.91306859 9.41584856 3.80489496 7.625 3.6875 C6.62726563 3.62949219 5.62953125 3.57148438 4.6015625 3.51171875 C3.74304688 3.34285156 2.88453125 3.17398437 2 3 C1.34 2.01 0.68 1.02 0 0 Z " fill="#06133B" transform="translate(154,341)"/>
<path d="M0 0 C0.66 0.33 1.32 0.66 2 1 C1.01 2.32 0.02 3.64 -1 5 C0.32 5.33 1.64 5.66 3 6 C-1.455 6.495 -1.455 6.495 -6 7 C-4.02 4.69 -2.04 2.38 0 0 Z " fill="#2251A1" transform="translate(131,182)"/>
<path d="M0 0 C-0.99 1.485 -0.99 1.485 -2 3 C-4.1640625 3.29296875 -4.1640625 3.29296875 -6.625 3.1875 C-7.44226563 3.16042969 -8.25953125 3.13335937 -9.1015625 3.10546875 C-10.04128906 3.05326172 -10.04128906 3.05326172 -11 3 C-8.15930939 0.15930939 -3.81147953 -1.90573977 0 0 Z " fill="#051135" transform="translate(131,140)"/>
<path d="M0 0 C0.33 1.32 0.66 2.64 1 4 C-0.32 4.99 -1.64 5.98 -3 7 C-3.66 6.67 -4.32 6.34 -5 6 C-3.35 4.02 -1.7 2.04 0 0 Z " fill="#091433" transform="translate(232,277)"/>
<path d="M0 0 C0.99 0 1.98 0 3 0 C3.33 1.98 3.66 3.96 4 6 C2.68 5.67 1.36 5.34 0 5 C0 3.35 0 1.7 0 0 Z " fill="#0A55CE" transform="translate(209,237)"/>
<path d="M0 0 C1 2 1 2 0.25 4.375 C-0.9393833 6.87270493 -2.25776832 8.86180657 -4 11 C-4.56638908 6.18569279 -2.82561627 3.79692186 0 0 Z " fill="#D2E3F2" transform="translate(215,224)"/>
<path d="M0 0 C1.98 0.99 1.98 0.99 4 2 C4 3.32 4 4.64 4 6 C3.01 6 2.02 6 1 6 C0.67 4.02 0.34 2.04 0 0 Z " fill="#0D59D2" transform="translate(162,222)"/>
<path d="M0 0 C0 1.32 0 2.64 0 4 C0.66 4 1.32 4 2 4 C2 4.66 2 5.32 2 6 C-0.88437779 4.70700306 -2.87219421 3.34058637 -5 1 C-2 0 -2 0 0 0 Z " fill="#134CAD" transform="translate(75,294)"/>
<path d="M0 0 C1.48199902 0.44909061 2.96055236 0.90956564 4.4375 1.375 C5.26121094 1.63023437 6.08492188 1.88546875 6.93359375 2.1484375 C9 3 9 3 10 5 C6.05140217 4.4359146 3.29120954 3.2568294 0 1 C0 0.67 0 0.34 0 0 Z " fill="#071239" transform="translate(70,270)"/>
<path d="M0 0 C0.99 0.33 1.98 0.66 3 1 C0.03 3.475 0.03 3.475 -3 6 C-3.33 5.01 -3.66 4.02 -4 3 C-3.34 3 -2.68 3 -2 3 C-2 2.34 -2 1.68 -2 1 C-1.34 0.67 -0.68 0.34 0 0 Z " fill="#050A25" transform="translate(134,177)"/>
<path d="M0 0 C-0.33 0.99 -0.66 1.98 -1 3 C-4.3 2.67 -7.6 2.34 -11 2 C-11 1.67 -11 1.34 -11 1 C-7.26513121 0.4254048 -3.78706732 0 0 0 Z " fill="#0C54CB" transform="translate(209,155)"/>
<path d="M0 0 C-0.66 0 -1.32 0 -2 0 C-2 0.66 -2 1.32 -2 2 C-4.64 2 -7.28 2 -10 2 C-6.80505194 -1.19494806 -4.22040044 -1.35655728 0 0 Z " fill="#041032" transform="translate(162,132)"/>
<path d="M0 0 C-3.08888522 2.05925681 -3.70935927 2.2390374 -7.1875 2.125 C-9.0746875 2.063125 -9.0746875 2.063125 -11 2 C-6.98764085 -0.6749061 -4.6342454 -1.48957888 0 0 Z " fill="#144CA7" transform="translate(143,128)"/>
<path d="M0 0 C1.32 0.33 2.64 0.66 4 1 C1.36 2.65 -1.28 4.3 -4 6 C-4 5.01 -4 4.02 -4 3 C-3.01 3 -2.02 3 -1 3 C-0.67 2.01 -0.34 1.02 0 0 Z " fill="#184AA8" transform="translate(219,286)"/>
<path d="M0 0 C1.32 0.66 2.64 1.32 4 2 C1.03 4.475 1.03 4.475 -2 7 C-2 6.01 -2 5.02 -2 4 C-1.34 4 -0.68 4 0 4 C0 2.68 0 1.36 0 0 Z " fill="#060C21" transform="translate(126,182)"/>
<path d="M0 0 C3.3 0 6.6 0 10 0 C10.33 1.32 10.66 2.64 11 4 C10.484375 3.690625 9.96875 3.38125 9.4375 3.0625 C6.33334577 1.70940713 3.34884993 1.38640576 0 1 C0 0.67 0 0.34 0 0 Z " fill="#0B1C4A" transform="translate(233,134)"/>
<path d="M0 0 C2.0625 0.4375 2.0625 0.4375 4 1 C2.71034824 2.37562854 1.37310707 3.70766393 0 5 C-0.66 5 -1.32 5 -2 5 C-1.125 1.125 -1.125 1.125 0 0 Z " fill="#164BB8" transform="translate(198,105)"/>
</svg>
